<svg width="15" height="17" viewBox="0 0 15 17" fill="none" xmlns="http://www.w3.org/2000/svg">
<path d="M4.6875 1.8773C4.43886 1.8773 4.2004 1.97607 4.02459 2.15188C3.84877 2.3277 3.75 2.56616 3.75 2.8148C3.75 3.06344 3.84877 3.30189 4.02459 3.47771C4.2004 3.65352 4.43886 3.7523 4.6875 3.7523C4.93614 3.7523 5.1746 3.65352 5.35041 3.47771C5.52623 3.30189 5.625 3.06344 5.625 2.8148C5.625 2.56616 5.52623 2.3277 5.35041 2.15188C5.1746 1.97607 4.93614 1.8773 4.6875 1.8773ZM2.03438 1.8773C2.22806 1.32836 2.58726 0.853016 3.06244 0.516787C3.53762 0.180559 4.10539 0 4.6875 0C5.26961 0 5.83738 0.180559 6.31256 0.516787C6.78774 0.853016 7.14694 1.32836 7.34062 1.8773H14.0625C14.3111 1.8773 14.5496 1.97607 14.7254 2.15188C14.9012 2.3277 15 2.56616 15 2.8148C15 3.06344 14.9012 3.30189 14.7254 3.47771C14.5496 3.65352 14.3111 3.7523 14.0625 3.7523H7.34062C7.14694 4.30123 6.78774 4.77658 6.31256 5.11281C5.83738 5.44904 5.26961 5.62959 4.6875 5.62959C4.10539 5.62959 3.53762 5.44904 3.06244 5.11281C2.58726 4.77658 2.22806 4.30123 2.03438 3.7523H0.9375C0.68886 3.7523 0.450403 3.65352 0.274588 3.47771C0.0987722 3.30189 0 3.06344 0 2.8148C0 2.56616 0.0987722 2.3277 0.274588 2.15188C0.450403 1.97607 0.68886 1.8773 0.9375 1.8773H2.03438ZM10.3125 7.5023C10.0639 7.5023 9.8254 7.60107 9.64959 7.77688C9.47377 7.9527 9.375 8.19116 9.375 8.4398C9.375 8.68844 9.47377 8.92689 9.64959 9.10271C9.8254 9.27852 10.0639 9.3773 10.3125 9.3773C10.5611 9.3773 10.7996 9.27852 10.9754 9.10271C11.1512 8.92689 11.25 8.68844 11.25 8.4398C11.25 8.19116 11.1512 7.9527 10.9754 7.77688C10.7996 7.60107 10.5611 7.5023 10.3125 7.5023ZM7.65938 7.5023C7.85306 6.95336 8.21226 6.47802 8.68744 6.14179C9.16262 5.80556 9.73039 5.625 10.3125 5.625C10.8946 5.625 11.4624 5.80556 11.9376 6.14179C12.4127 6.47802 12.7719 6.95336 12.9656 7.5023H14.0625C14.3111 7.5023 14.5496 7.60107 14.7254 7.77688C14.9012 7.9527 15 8.19116 15 8.4398C15 8.68844 14.9012 8.92689 14.7254 9.10271C14.5496 9.27852 14.3111 9.3773 14.0625 9.3773H12.9656C12.7719 9.92623 12.4127 10.4016 11.9376 10.7378C11.4624 11.074 10.8946 11.2546 10.3125 11.2546C9.73039 11.2546 9.16262 11.074 8.68744 10.7378C8.21226 10.4016 7.85306 9.92623 7.65938 9.3773H0.9375C0.68886 9.3773 0.450403 9.27852 0.274588 9.10271C0.0987722 8.92689 0 8.68844 0 8.4398C0 8.19116 0.0987722 7.9527 0.274588 7.77688C0.450403 7.60107 0.68886 7.5023 0.9375 7.5023H7.65938ZM4.6875 13.1273C4.43886 13.1273 4.2004 13.2261 4.02459 13.4019C3.84877 13.5777 3.75 13.8162 3.75 14.0648C3.75 14.3134 3.84877 14.5519 4.02459 14.7277C4.2004 14.9035 4.43886 15.0023 4.6875 15.0023C4.93614 15.0023 5.1746 14.9035 5.35041 14.7277C5.52623 14.5519 5.625 14.3134 5.625 14.0648C5.625 13.8162 5.52623 13.5777 5.35041 13.4019C5.1746 13.2261 4.93614 13.1273 4.6875 13.1273ZM2.03438 13.1273C2.22806 12.5784 2.58726 12.103 3.06244 11.7668C3.53762 11.4306 4.10539 11.25 4.6875 11.25C5.26961 11.25 5.83738 11.4306 6.31256 11.7668C6.78774 12.103 7.14694 12.5784 7.34062 13.1273H14.0625C14.3111 13.1273 14.5496 13.2261 14.7254 13.4019C14.9012 13.5777 15 13.8162 15 14.0648C15 14.3134 14.9012 14.5519 14.7254 14.7277C14.5496 14.9035 14.3111 15.0023 14.0625 15.0023H7.34062C7.14694 15.5512 6.78774 16.0266 6.31256 16.3628C5.83738 16.699 5.26961 16.8796 4.6875 16.8796C4.10539 16.8796 3.53762 16.699 3.06244 16.3628C2.58726 16.0266 2.22806 15.5512 2.03438 15.0023H0.9375C0.68886 15.0023 0.450403 14.9035 0.274588 14.7277C0.0987722 14.5519 0 14.3134 0 14.0648C0 13.8162 0.0987722 13.5777 0.274588 13.4019C0.450403 13.2261 0.68886 13.1273 0.9375 13.1273H2.03438Z" fill="#224877"/>
</svg>
