<svg width="31" height="30" viewBox="0 0 31 30" fill="none" xmlns="http://www.w3.org/2000/svg">
<path d="M29.4161 24.9156L26.9406 25.5008C26.3855 25.6358 25.9504 26.0559 25.8304 26.611L25.3053 28.8164C25.0202 30.0166 23.49 30.3917 22.6948 29.4465L18.209 24.2855C17.8489 23.8655 18.0439 23.2053 18.584 23.0703C21.2395 22.4252 23.625 20.9399 25.3803 18.8245C25.6654 18.4794 26.1755 18.4344 26.4905 18.7495L29.8211 22.0801C30.9614 23.2203 30.5563 24.6456 29.4161 24.9156Z" fill="#224877"/>
<path d="M1.58414 24.9156L4.0596 25.5008C4.61471 25.6358 5.04979 26.0559 5.16981 26.611L5.69491 28.8164C5.97996 30.0166 7.51025 30.3917 8.3054 29.4465L12.7912 24.2855C13.1513 23.8655 12.9563 23.2053 12.4162 23.0703C9.76067 22.4252 7.37522 20.9399 5.61989 18.8245C5.33484 18.4794 4.82474 18.4344 4.50969 18.7495L1.17906 22.0801C0.0388494 23.2203 0.443925 24.6456 1.58414 24.9156Z" fill="#224877"/>
<path d="M15.5381 0.205872C9.73201 0.205872 5.03613 4.90175 5.03613 10.7078C5.03613 12.8832 5.68125 14.8786 6.79146 16.5439C8.41176 18.9444 10.9772 20.6397 13.9628 21.0748C14.4729 21.1648 14.998 21.2098 15.5381 21.2098C16.0782 21.2098 16.6033 21.1648 17.1134 21.0748C20.0989 20.6397 22.6644 18.9444 24.2847 16.5439C25.3949 14.8786 26.0401 12.8832 26.0401 10.7078C26.0401 4.90175 21.3442 0.205872 15.5381 0.205872ZM20.129 10.3778L18.8837 11.623C18.6737 11.833 18.5537 12.2381 18.6287 12.5382L18.9887 14.0835C19.2738 15.2987 18.6287 15.7788 17.5485 15.1337L16.0482 14.2485C15.7781 14.0835 15.3281 14.0835 15.058 14.2485L13.5577 15.1337C12.4775 15.7638 11.8324 15.2987 12.1175 14.0835L12.4775 12.5382C12.5375 12.2531 12.4325 11.833 12.2225 11.623L10.9472 10.3778C10.2121 9.64264 10.4521 8.9075 11.4723 8.74247L13.0776 8.47242C13.3477 8.42741 13.6627 8.18736 13.7828 7.94732L14.6679 6.17699C15.148 5.21681 15.9282 5.21681 16.4083 6.17699L17.2934 7.94732C17.4134 8.18736 17.7285 8.42741 18.0136 8.47242L19.6189 8.74247C20.624 8.9075 20.8641 9.64264 20.129 10.3778Z" fill="#FFB61D"/>
</svg>
