<svg width="52" height="63" viewBox="0 0 52 63" fill="none" xmlns="http://www.w3.org/2000/svg">
<path d="M30.1522 0.205872C29.4372 0.205872 28.7516 0.489877 28.246 0.995409C27.7405 1.50094 27.4565 2.18659 27.4565 2.90152V8.29282H0.5V5.59717C0.5 4.16731 1.06801 2.79601 2.07908 1.78495C3.09014 0.773882 4.46144 0.205872 5.8913 0.205872H30.1522Z" fill="#374F68"/>
<path d="M30.1521 0.205872C29.4372 0.205872 28.7516 0.489877 28.246 0.995409C27.7405 1.50094 27.4565 2.18659 27.4565 2.90152C26.7416 2.90152 26.0559 3.18553 25.5504 3.69106C25.0448 4.19659 24.7608 4.88224 24.7608 5.59717V8.29282H4.54346V5.59717C4.54346 4.16731 5.11147 2.79601 6.12253 1.78495C7.1336 0.773882 8.5049 0.205872 9.93476 0.205872H30.1521Z" fill="#425B72"/>
<path d="M38.2391 13.6841V54.1189H0.5V8.29282H27.4565V10.9885C27.4565 11.7034 27.7405 12.389 28.246 12.8946C28.7516 13.4001 29.4372 13.6841 30.1522 13.6841H31.5V16.3798C37.7808 13.2393 36.4465 13.6841 38.2391 13.6841Z" fill="#9FDBF3"/>
<path d="M38.2391 54.1189C38.2391 56.6797 38.4143 57.9332 37.5382 59.5102C37.0632 60.3329 36.3793 61.0155 35.5556 61.4889C34.7319 61.9623 33.7978 62.2096 32.8478 62.2058H5.8913C4.46144 62.2058 3.09014 61.6378 2.07908 60.6267C1.06801 59.6157 0.5 58.2444 0.5 56.8145V54.1189H38.2391Z" fill="#374F68"/>
<path d="M38.2391 54.1189C38.2391 56.6797 38.4143 57.9332 37.5382 59.5102C37.0665 59.5102 39.0073 59.5102 9.93476 59.5102C8.5049 59.5102 7.1336 58.9422 6.12253 57.9311C5.11147 56.92 4.54346 55.5487 4.54346 54.1189H38.2391Z" fill="#425B72"/>
<path d="M20.7173 59.5102H18.0217C17.6642 59.5102 17.3214 59.3682 17.0686 59.1154C16.8158 58.8626 16.6738 58.5198 16.6738 58.1624C16.6738 57.8049 16.8158 57.4621 17.0686 57.2093C17.3214 56.9565 17.6642 56.8145 18.0217 56.8145H20.7173C21.0748 56.8145 21.4176 56.9565 21.6704 57.2093C21.9231 57.4621 22.0651 57.8049 22.0651 58.1624C22.0651 58.5198 21.9231 58.8626 21.6704 59.1154C21.4176 59.3682 21.0748 59.5102 20.7173 59.5102Z" fill="#EDEBF2"/>
<path d="M34.1956 16.3798L28.8043 19.0754V16.3798H27.4565C26.7416 16.3798 26.0559 16.0958 25.5504 15.5902C25.0448 15.0847 24.7608 14.399 24.7608 13.6841V8.29282H4.54346V17.7276C4.90092 17.7276 5.24375 17.8696 5.49651 18.1224C5.74928 18.3751 5.89128 18.718 5.89128 19.0754V26.0437C6.76756 25.7992 7.68196 25.7215 8.58693 25.8145V24.4667C8.58693 24.1093 8.72894 23.7664 8.9817 23.5137C9.23447 23.2609 9.57729 23.1189 9.93476 23.1189H23.413C23.7705 23.1189 24.1133 23.2609 24.3661 23.5137C24.6188 23.7664 24.7608 24.1093 24.7608 24.4667V25.8145C26.3647 25.8145 27.6452 25.6798 28.9661 27.0006C29.5308 27.5661 29.9154 28.2863 30.0711 29.0702C30.2268 29.854 30.1467 30.6665 29.841 31.4049C29.5352 32.1433 29.0175 32.7746 28.3532 33.2189C27.6889 33.6633 26.9079 33.9008 26.1087 33.9015H24.7608V35.2493C24.7608 35.6068 24.6188 35.9496 24.3661 36.2024C24.1133 36.4551 23.7705 36.5971 23.413 36.5971H20.7174C25.1382 41.018 24.9495 40.0206 23.5478 44.8863C23.1161 46.3755 22.2124 47.6842 20.9727 48.6155C19.733 49.5469 18.2244 50.0504 16.6739 50.0504C15.1234 50.0504 13.6148 49.5469 12.3751 48.6155C11.1354 47.6842 10.2317 46.3755 9.79997 44.8863C8.45215 40.0745 8.19606 41.0315 12.6304 36.5971H9.93476C9.57729 36.5971 9.23447 36.4551 8.9817 36.2024C8.72894 35.9496 8.58693 35.6068 8.58693 35.2493V33.9015C6.95606 33.9015 5.82389 34.0228 4.54346 32.8637V54.1189H38.2391V16.3798H34.1956Z" fill="#B2E5FB"/>
<path d="M26.1088 21.7711H12.6305C11.8862 21.7711 11.2827 22.3745 11.2827 23.1189V33.9015C11.2827 34.6459 11.8862 35.2493 12.6305 35.2493H26.1088C26.8532 35.2493 27.4566 34.6459 27.4566 33.9015V23.1189C27.4566 22.3745 26.8532 21.7711 26.1088 21.7711Z" fill="#DAD7E5"/>
<path d="M26.1089 21.7711H15.3263C14.582 21.7711 13.9785 22.3745 13.9785 23.1189V33.9015C13.9785 34.6459 14.582 35.2493 15.3263 35.2493H26.1089C26.8533 35.2493 27.4568 34.6459 27.4568 33.9015V23.1189C27.4568 22.3745 26.8533 21.7711 26.1089 21.7711Z" fill="#EDEBF2"/>
<path d="M5.89111 28.5102V17.7276C5.89111 17.3701 6.03312 17.0273 6.28588 16.7746C6.53865 16.5218 6.88147 16.3798 7.23894 16.3798C7.5964 16.3798 7.93923 16.5218 8.19199 16.7746C8.44476 17.0273 8.58676 17.3701 8.58676 17.7276V28.5102C8.58676 28.8677 8.44476 29.2105 8.19199 29.4633C7.93923 29.716 7.5964 29.858 7.23894 29.858C6.88147 29.858 6.53865 29.716 6.28588 29.4633C6.03312 29.2105 5.89111 28.8677 5.89111 28.5102Z" fill="#EDEBF2"/>
<path d="M11.2824 24.4667V32.5537H9.93459C8.86219 32.5537 7.83372 32.1277 7.07542 31.3694C6.31712 30.6111 5.89111 29.5826 5.89111 28.5102C5.89111 27.4378 6.31712 26.4093 7.07542 25.651C7.83372 24.8927 8.86219 24.4667 9.93459 24.4667H11.2824Z" fill="#6FABE6"/>
<path d="M11.2825 24.4667V29.858H9.93466C9.10043 29.8557 8.28734 29.5954 7.60687 29.1128C6.9264 28.6302 6.41186 27.9489 6.13379 27.1624C6.41186 26.3759 6.9264 25.6946 7.60687 25.212C8.28734 24.7294 9.10043 24.4691 9.93466 24.4667H11.2825Z" fill="#82BCF4"/>
<path d="M32.8478 28.5102C32.8478 29.5826 32.4218 30.6111 31.6635 31.3694C30.9052 32.1277 29.8768 32.5537 28.8044 32.5537H27.4565V24.4667H28.8044C29.8768 24.4667 30.9052 24.8927 31.6635 25.651C32.4218 26.4093 32.8478 27.4378 32.8478 28.5102Z" fill="#6FABE6"/>
<path d="M32.6052 27.1624C32.3272 27.9489 31.8126 28.6302 31.1321 29.1128C30.4517 29.5954 29.6386 29.8557 28.8044 29.858H27.4565V24.4667H28.8044C29.6386 24.4691 30.4517 24.7294 31.1321 25.212C31.8126 25.6946 32.3272 26.3759 32.6052 27.1624Z" fill="#82BCF4"/>
<path d="M18.0218 28.5102C18.0218 28.1527 17.8798 27.8099 17.6271 27.5571C17.3743 27.3044 17.0315 27.1624 16.674 27.1624C16.3165 27.1624 15.9737 27.3044 15.7209 27.5571C15.4682 27.8099 15.3262 28.1527 15.3262 28.5102C15.3262 28.8677 15.4682 29.2105 15.7209 29.4633C15.9737 29.716 16.3165 29.858 16.674 29.858C17.0315 29.858 17.3743 29.716 17.6271 29.4633C17.8798 29.2105 18.0218 28.8677 18.0218 28.5102Z" fill="#6FABE6"/>
<path d="M23.4129 28.5102C23.4129 28.1527 23.2709 27.8099 23.0182 27.5571C22.7654 27.3044 22.4226 27.1624 22.0651 27.1624C21.7076 27.1624 21.3648 27.3044 21.1121 27.5571C20.8593 27.8099 20.7173 28.1527 20.7173 28.5102C20.7173 28.8677 20.8593 29.2105 21.1121 29.4633C21.3648 29.716 21.7076 29.858 22.0651 29.858C22.4226 29.858 22.7654 29.716 23.0182 29.4633C23.2709 29.2105 23.4129 28.8677 23.4129 28.5102Z" fill="#6FABE6"/>
<path d="M35.5435 8.29282H38.2391V54.1189H35.5435V8.29282Z" fill="#374F68"/>
<path d="M35.5435 16.3798H38.2391V54.1189H35.5435V16.3798Z" fill="#425B72"/>
<path d="M27.0254 40.8158C26.2032 43.6732 25.9471 45.4524 23.8445 47.1506C22.6043 48.1493 21.066 48.705 19.4738 48.7294C17.8816 48.7538 16.327 48.2456 15.0567 47.2854C12.7924 45.5602 12.5363 43.6598 11.7141 40.8158C11.5728 40.3465 11.5621 39.8475 11.6832 39.3725C11.8043 38.8975 12.0527 38.4646 12.4015 38.1202L15.3263 35.2493H23.4132C25.8797 37.7158 27.605 38.8076 27.0254 40.8158Z" fill="#6FABE6"/>
<path d="M27.0252 40.8158C26.203 43.6732 25.9469 45.4524 23.8443 47.1506C22.8031 47.4201 21.7144 47.451 20.6595 47.241C19.6046 47.0309 18.6108 46.5854 17.7522 45.9376C15.4878 44.2124 15.2317 42.3119 14.4096 39.468C13.8704 37.5945 15.3261 36.5972 16.6739 35.2493H23.413C25.8795 37.7158 27.6048 38.8076 27.0252 40.8158Z" fill="#82BCF4"/>
<path d="M51.7174 2.90152V10.9885C51.7174 11.7034 51.4334 12.3891 50.9279 12.8946C50.4223 13.4001 49.7367 13.6841 49.0217 13.6841H36.8913L31.5 16.3798V13.6841H30.1522C29.4373 13.6841 28.7516 13.4001 28.2461 12.8946C27.7405 12.3891 27.4565 11.7034 27.4565 10.9885V2.90152C27.4565 2.18659 27.7405 1.50094 28.2461 0.995409C28.7516 0.489877 29.4373 0.205872 30.1522 0.205872H49.0217C49.7367 0.205872 50.4223 0.489877 50.9279 0.995409C51.4334 1.50094 51.7174 2.18659 51.7174 2.90152Z" fill="#DAD7E5"/>
<path d="M51.7174 2.90152V10.9885C51.7174 11.7034 51.4334 12.3891 50.9279 12.8946C50.4223 13.4001 49.7367 13.6841 49.0217 13.6841H36.8913L31.5 16.3798V13.6841H30.1522C29.4373 13.6841 28.7516 13.4001 28.2461 12.8946C27.7405 12.3891 27.4565 11.7034 27.4565 10.9885V2.90152C27.4565 2.18659 27.7405 1.50094 28.2461 0.995409C28.7516 0.489877 29.4373 0.205872 30.1522 0.205872H49.0217C49.7367 0.205872 50.4223 0.489877 50.9279 0.995409C51.4334 1.50094 51.7174 2.18659 51.7174 2.90152Z" fill="#DAD7E5"/>
<path d="M51.7175 2.90152V10.9885C51.7175 11.7034 51.4335 12.3891 50.9279 12.8946C50.4224 13.4001 49.7367 13.6841 49.0218 13.6841H36.8914L35.6918 14.2906C35.5337 14.3685 35.3583 14.4047 35.1823 14.396C35.0063 14.3873 34.8353 14.3339 34.6857 14.2409C34.536 14.1478 34.4124 14.0182 34.3267 13.8642C34.241 13.7102 34.1959 13.5369 34.1957 13.3606C34.1957 12.1072 32.5783 12.3363 32.8479 12.3363C32.133 12.3363 31.4473 12.0523 30.9418 11.5468C30.4363 11.0412 30.1523 10.3556 30.1523 9.64065C30.1523 0.960654 30.0175 1.10891 30.5296 0.205872H49.0218C49.7367 0.205872 50.4224 0.489877 50.9279 0.995409C51.4335 1.50094 51.7175 2.18659 51.7175 2.90152Z" fill="#EDEBF2"/>
<path d="M35.5433 6.945C35.5433 6.58754 35.4013 6.24471 35.1485 5.99194C34.8958 5.73918 34.5529 5.59718 34.1955 5.59718C33.838 5.59718 33.4952 5.73918 33.2424 5.99194C32.9897 6.24471 32.8477 6.58754 32.8477 6.945C32.8477 7.30247 32.9897 7.64529 33.2424 7.89806C33.4952 8.15082 33.838 8.29283 34.1955 8.29283C34.5529 8.29283 34.8958 8.15082 35.1485 7.89806C35.4013 7.64529 35.5433 7.30247 35.5433 6.945Z" fill="#6FABE6"/>
<path d="M40.9344 6.94501C40.9344 6.58754 40.7924 6.24472 40.5397 5.99195C40.2869 5.73919 39.9441 5.59718 39.5866 5.59718C39.2291 5.59718 38.8863 5.73919 38.6335 5.99195C38.3808 6.24472 38.2388 6.58754 38.2388 6.94501C38.2388 7.30247 38.3808 7.6453 38.6335 7.89806C38.8863 8.15083 39.2291 8.29283 39.5866 8.29283C39.9441 8.29283 40.2869 8.15083 40.5397 7.89806C40.7924 7.6453 40.9344 7.30247 40.9344 6.94501Z" fill="#6FABE6"/>
<path d="M46.326 6.94501C46.326 6.58754 46.184 6.24472 45.9313 5.99195C45.6785 5.73919 45.3357 5.59718 44.9782 5.59718C44.6207 5.59718 44.2779 5.73919 44.0251 5.99195C43.7724 6.24472 43.6304 6.58754 43.6304 6.94501C43.6304 7.30247 43.7724 7.6453 44.0251 7.89806C44.2779 8.15083 44.6207 8.29283 44.9782 8.29283C45.3357 8.29283 45.6785 8.15083 45.9313 7.89806C46.184 7.6453 46.326 7.30247 46.326 6.94501Z" fill="#6FABE6"/>
<path d="M20.7171 41.9885C20.7171 41.631 20.5751 41.2882 20.3224 41.0354C20.0696 40.7826 19.7268 40.6406 19.3693 40.6406C19.0118 40.6406 18.669 40.7826 18.4163 41.0354C18.1635 41.2882 18.0215 41.631 18.0215 41.9885C18.0215 42.3459 18.1635 42.6887 18.4163 42.9415C18.669 43.1943 19.0118 43.3363 19.3693 43.3363C19.7268 43.3363 20.0696 43.1943 20.3224 42.9415C20.5751 42.6887 20.7171 42.3459 20.7171 41.9885Z" fill="#DAD7E5"/>
<path d="M0.5 8.29282H3.19565V54.1189H0.5V8.29282Z" fill="#374F68"/>
</svg>
