<svg width="16" height="16" viewBox="0 0 16 16" fill="none" xmlns="http://www.w3.org/2000/svg">
<path d="M15.5 3.42012C15.5 2.8518 15.2743 2.30675 14.8724 1.90488C14.4706 1.50302 13.9255 1.27725 13.3572 1.27725H12.8215V0.756606C12.8215 0.468324 12.5998 0.22089 12.3115 0.206492C12.2391 0.203002 12.1667 0.214255 12.0988 0.239568C12.0308 0.264881 11.9687 0.303728 11.9162 0.353754C11.8637 0.403781 11.8219 0.463945 11.7933 0.530602C11.7648 0.597259 11.75 0.669021 11.75 0.741539V1.27725H4.25001V0.756606C4.25001 0.468324 4.02836 0.22089 3.74008 0.206492C3.66764 0.203002 3.59526 0.214255 3.5273 0.239568C3.45934 0.264881 3.39723 0.303728 3.34473 0.353754C3.29223 0.403781 3.25044 0.463945 3.22188 0.530602C3.19332 0.597259 3.17859 0.669021 3.17858 0.741539V1.27725H2.64286C2.07454 1.27725 1.5295 1.50302 1.12763 1.90488C0.725765 2.30675 0.5 2.8518 0.5 3.42012V3.82191C0.5 3.85743 0.51411 3.89149 0.539227 3.91661C0.564343 3.94172 0.598409 3.95583 0.633929 3.95583H15.3661C15.4016 3.95583 15.4357 3.94172 15.4608 3.91661C15.4859 3.89149 15.5 3.85743 15.5 3.82191V3.42012Z" fill="#224877"/>
<path d="M0.5 13.063C0.5 13.6313 0.725765 14.1764 1.12763 14.5783C1.5295 14.9801 2.07454 15.2059 2.64286 15.2059H13.3572C13.9255 15.2059 14.4706 14.9801 14.8724 14.5783C15.2743 14.1764 15.5 13.6313 15.5 13.063V5.12773C15.5 5.10109 15.4895 5.07554 15.4706 5.0567C15.4518 5.03787 15.4262 5.02728 15.3996 5.02728H0.600447C0.573807 5.02728 0.548258 5.03787 0.52942 5.0567C0.510583 5.07554 0.5 5.10109 0.5 5.12773V13.063ZM12.0179 6.09871C12.1768 6.09871 12.3322 6.14584 12.4643 6.23414C12.5965 6.32244 12.6995 6.44794 12.7603 6.59477C12.8211 6.74161 12.837 6.90318 12.806 7.05906C12.775 7.21494 12.6985 7.35812 12.5861 7.4705C12.4737 7.58288 12.3305 7.65942 12.1747 7.69042C12.0188 7.72143 11.8572 7.70551 11.7104 7.64469C11.5635 7.58387 11.438 7.48088 11.3497 7.34873C11.2614 7.21658 11.2143 7.06122 11.2143 6.90229C11.2143 6.68917 11.299 6.48478 11.4497 6.33408C11.6004 6.18338 11.8048 6.09871 12.0179 6.09871ZM12.0179 8.77729C12.1768 8.77729 12.3322 8.82442 12.4643 8.91272C12.5965 9.00102 12.6995 9.12652 12.7603 9.27335C12.8211 9.42019 12.837 9.58176 12.806 9.73764C12.775 9.89352 12.6985 10.0367 12.5861 10.1491C12.4737 10.2615 12.3305 10.338 12.1747 10.369C12.0188 10.4 11.8572 10.3841 11.7104 10.3233C11.5635 10.2625 11.438 10.1595 11.3497 10.0273C11.2614 9.89516 11.2143 9.7398 11.2143 9.58087C11.2143 9.36775 11.299 9.16336 11.4497 9.01266C11.6004 8.86196 11.8048 8.77729 12.0179 8.77729ZM9.33931 6.09871C9.49825 6.09871 9.65361 6.14584 9.78576 6.23414C9.9179 6.32244 10.0209 6.44794 10.0817 6.59477C10.1425 6.74161 10.1585 6.90318 10.1274 7.05906C10.0964 7.21494 10.0199 7.35812 9.90753 7.4705C9.79514 7.58288 9.65196 7.65942 9.49608 7.69042C9.34021 7.72143 9.17863 7.70551 9.0318 7.64469C8.88497 7.58387 8.75946 7.48088 8.67117 7.34873C8.58287 7.21658 8.53574 7.06122 8.53574 6.90229C8.53574 6.68917 8.6204 6.48478 8.7711 6.33408C8.9218 6.18338 9.12619 6.09871 9.33931 6.09871ZM9.33931 8.77729C9.49825 8.77729 9.65361 8.82442 9.78576 8.91272C9.9179 9.00102 10.0209 9.12652 10.0817 9.27335C10.1425 9.42019 10.1585 9.58176 10.1274 9.73764C10.0964 9.89352 10.0199 10.0367 9.90753 10.1491C9.79514 10.2615 9.65196 10.338 9.49608 10.369C9.34021 10.4 9.17863 10.3841 9.0318 10.3233C8.88497 10.2625 8.75946 10.1595 8.67117 10.0273C8.58287 9.89516 8.53574 9.7398 8.53574 9.58087C8.53574 9.36775 8.6204 9.16336 8.7711 9.01266C8.9218 8.86196 9.12619 8.77729 9.33931 8.77729ZM9.33931 11.4559C9.49825 11.4559 9.65361 11.503 9.78576 11.5913C9.9179 11.6796 10.0209 11.8051 10.0817 11.9519C10.1425 12.0988 10.1585 12.2603 10.1274 12.4162C10.0964 12.5721 10.0199 12.7153 9.90753 12.8277C9.79514 12.94 9.65196 13.0166 9.49608 13.0476C9.34021 13.0786 9.17863 13.0627 9.0318 13.0019C8.88497 12.941 8.75946 12.838 8.67117 12.7059C8.58287 12.5737 8.53574 12.4184 8.53574 12.2594C8.53574 12.0463 8.6204 11.8419 8.7711 11.6912C8.9218 11.5405 9.12619 11.4559 9.33931 11.4559ZM6.66073 8.77729C6.81967 8.77729 6.97503 8.82442 7.10718 8.91272C7.23932 9.00102 7.34232 9.12652 7.40314 9.27335C7.46396 9.42019 7.47987 9.58176 7.44887 9.73764C7.41786 9.89352 7.34133 10.0367 7.22895 10.1491C7.11656 10.2615 6.97338 10.338 6.8175 10.369C6.66163 10.4 6.50005 10.3841 6.35322 10.3233C6.20639 10.2625 6.08088 10.1595 5.99259 10.0273C5.90429 9.89516 5.85716 9.7398 5.85716 9.58087C5.85716 9.36775 5.94182 9.16336 6.09252 9.01266C6.24322 8.86196 6.44761 8.77729 6.66073 8.77729ZM6.66073 11.4559C6.81967 11.4559 6.97503 11.503 7.10718 11.5913C7.23932 11.6796 7.34232 11.8051 7.40314 11.9519C7.46396 12.0988 7.47987 12.2603 7.44887 12.4162C7.41786 12.5721 7.34133 12.7153 7.22895 12.8277C7.11656 12.94 6.97338 13.0166 6.8175 13.0476C6.66163 13.0786 6.50005 13.0627 6.35322 13.0019C6.20639 12.941 6.08088 12.838 5.99259 12.7059C5.90429 12.5737 5.85716 12.4184 5.85716 12.2594C5.85716 12.0463 5.94182 11.8419 6.09252 11.6912C6.24322 11.5405 6.44761 11.4559 6.66073 11.4559ZM3.98215 8.77729C4.14109 8.77729 4.29645 8.82442 4.4286 8.91272C4.56074 9.00102 4.66374 9.12652 4.72456 9.27335C4.78538 9.42019 4.80129 9.58176 4.77029 9.73764C4.73928 9.89352 4.66275 10.0367 4.55037 10.1491C4.43798 10.2615 4.2948 10.338 4.13892 10.369C3.98305 10.4 3.82147 10.3841 3.67464 10.3233C3.52781 10.2625 3.4023 10.1595 3.31401 10.0273C3.22571 9.89516 3.17858 9.7398 3.17858 9.58087C3.17858 9.36775 3.26324 9.16336 3.41394 9.01266C3.56464 8.86196 3.76903 8.77729 3.98215 8.77729ZM3.98215 11.4559C4.14109 11.4559 4.29645 11.503 4.4286 11.5913C4.56074 11.6796 4.66374 11.8051 4.72456 11.9519C4.78538 12.0988 4.80129 12.2603 4.77029 12.4162C4.73928 12.5721 4.66275 12.7153 4.55037 12.8277C4.43798 12.94 4.2948 13.0166 4.13892 13.0476C3.98305 13.0786 3.82147 13.0627 3.67464 13.0019C3.52781 12.941 3.4023 12.838 3.31401 12.7059C3.22571 12.5737 3.17858 12.4184 3.17858 12.2594C3.17858 12.0463 3.26324 11.8419 3.41394 11.6912C3.56464 11.5405 3.76903 11.4559 3.98215 11.4559Z" fill="#224877"/>
</svg>
