<svg width="31" height="30" viewBox="0 0 31 30" fill="none" xmlns="http://www.w3.org/2000/svg">
<path d="M29.4161 24.9156L26.9406 25.5007C26.3855 25.6357 25.9504 26.0558 25.8304 26.6109L25.3053 28.8163C25.0202 30.0165 23.49 30.3916 22.6948 29.4464L18.209 24.2855C17.8489 23.8654 18.0439 23.2053 18.584 23.0702C21.2395 22.4251 23.625 20.9398 25.3803 18.8244C25.6654 18.4794 26.1755 18.4344 26.4905 18.7494L29.8211 22.0801C30.9614 23.2203 30.5563 24.6455 29.4161 24.9156Z" fill="#224877"/>
<path d="M1.58414 24.9156L4.0596 25.5007C4.61471 25.6357 5.04979 26.0558 5.16981 26.6109L5.69491 28.8163C5.97996 30.0165 7.51025 30.3916 8.3054 29.4464L12.7912 24.2855C13.1513 23.8654 12.9563 23.2053 12.4162 23.0702C9.76067 22.4251 7.37522 20.9398 5.61989 18.8244C5.33484 18.4794 4.82474 18.4344 4.50969 18.7494L1.17906 22.0801C0.0388494 23.2203 0.443925 24.6455 1.58414 24.9156Z" fill="#224877"/>
<path d="M15.5381 0.205811C9.73201 0.205811 5.03613 4.90169 5.03613 10.7078C5.03613 12.8832 5.68125 14.8786 6.79146 16.5439C8.41176 18.9443 10.9772 20.6396 13.9628 21.0747C14.4729 21.1647 14.998 21.2097 15.5381 21.2097C16.0782 21.2097 16.6033 21.1647 17.1134 21.0747C20.0989 20.6396 22.6644 18.9443 24.2847 16.5439C25.3949 14.8786 26.0401 12.8832 26.0401 10.7078C26.0401 4.90169 21.3442 0.205811 15.5381 0.205811ZM20.129 10.3777L18.8837 11.6229C18.6737 11.833 18.5537 12.2381 18.6287 12.5381L18.9887 14.0834C19.2738 15.2986 18.6287 15.7787 17.5485 15.1336L16.0482 14.2484C15.7781 14.0834 15.3281 14.0834 15.058 14.2484L13.5577 15.1336C12.4775 15.7637 11.8324 15.2986 12.1175 14.0834L12.4775 12.5381C12.5375 12.2531 12.4325 11.833 12.2225 11.6229L10.9472 10.3777C10.2121 9.64257 10.4521 8.90744 11.4723 8.74241L13.0776 8.47236C13.3477 8.42735 13.6627 8.1873 13.7828 7.94726L14.6679 6.17693C15.148 5.21675 15.9282 5.21675 16.4083 6.17693L17.2934 7.94726C17.4134 8.1873 17.7285 8.42735 18.0136 8.47236L19.6189 8.74241C20.624 8.90744 20.8641 9.64257 20.129 10.3777Z" fill="#FFB61D"/>
</svg>
