<svg width="30" height="30" viewBox="0 0 30 30" fill="none" xmlns="http://www.w3.org/2000/svg">
<path d="M28.9161 24.7098L26.4406 25.2949C25.8855 25.4299 25.4504 25.85 25.3304 26.4051L24.8053 28.6105C24.5202 29.8107 22.99 30.1858 22.1948 29.2406L17.709 24.0797C17.3489 23.6596 17.5439 22.9995 18.084 22.8644C20.7395 22.2193 23.125 20.734 24.8803 18.6186C25.1654 18.2736 25.6755 18.2286 25.9905 18.5436L29.3211 21.8742C30.4614 23.0145 30.0563 24.4397 28.9161 24.7098Z" fill="#224877"/>
<path d="M1.08414 24.7098L3.5596 25.2949C4.11471 25.4299 4.54979 25.85 4.66981 26.4051L5.19491 28.6105C5.47996 29.8107 7.01025 30.1858 7.8054 29.2406L12.2912 24.0797C12.6513 23.6596 12.4563 22.9995 11.9162 22.8644C9.26067 22.2193 6.87522 20.734 5.11989 18.6186C4.83484 18.2736 4.32474 18.2286 4.00969 18.5436L0.679063 21.8742C-0.461151 23.0145 -0.0560749 24.4397 1.08414 24.7098Z" fill="#224877"/>
<path d="M15.0381 0C9.23201 0 4.53613 4.69588 4.53613 10.502C4.53613 12.6774 5.18125 14.6727 6.29146 16.3381C7.91176 18.7385 10.4772 20.4338 13.4628 20.8689C13.9729 20.9589 14.498 21.0039 15.0381 21.0039C15.5782 21.0039 16.1033 20.9589 16.6134 20.8689C19.5989 20.4338 22.1644 18.7385 23.7847 16.3381C24.8949 14.6727 25.5401 12.6774 25.5401 10.502C25.5401 4.69588 20.8442 0 15.0381 0ZM19.629 10.1719L18.3837 11.4171C18.1737 11.6272 18.0537 12.0323 18.1287 12.3323L18.4887 13.8776C18.7738 15.0928 18.1287 15.5729 17.0485 14.9278L15.5482 14.0426C15.2781 13.8776 14.8281 13.8776 14.558 14.0426L13.0577 14.9278C11.9775 15.5579 11.3324 15.0928 11.6175 13.8776L11.9775 12.3323C12.0375 12.0473 11.9325 11.6272 11.7225 11.4171L10.4472 10.1719C9.7121 9.43676 9.95215 8.70163 10.9723 8.5366L12.5776 8.26655C12.8477 8.22154 13.1627 7.98149 13.2828 7.74145L14.1679 5.97112C14.648 5.01094 15.4282 5.01094 15.9083 5.97112L16.7934 7.74145C16.9134 7.98149 17.2285 8.22154 17.5136 8.26655L19.1189 8.5366C20.124 8.70163 20.3641 9.43676 19.629 10.1719Z" fill="#FFB61D"/>
</svg>
