<svg width="13" height="13" viewBox="0 0 13 13" fill="none" xmlns="http://www.w3.org/2000/svg">
<path d="M12.8998 12.416C12.9316 12.4478 12.9568 12.4855 12.974 12.527C12.9912 12.5685 13 12.613 13 12.6579C13 12.7029 12.9911 12.7473 12.9739 12.7888C12.9568 12.8303 12.9316 12.8681 12.8998 12.8998C12.868 12.9316 12.8303 12.9568 12.7888 12.974C12.7473 12.9912 12.7028 13 12.6579 13C12.6129 13 12.5685 12.9911 12.527 12.9739C12.4855 12.9568 12.4477 12.9316 12.416 12.8998L6.5 6.98384L0.584019 12.8998C0.519869 12.9639 0.432858 13 0.342128 13C0.251398 13 0.164381 12.964 0.100219 12.8998C0.0360577 12.8357 7.86055e-06 12.7487 1.28532e-09 12.6579C-7.85798e-06 12.5672 0.036027 12.4802 0.100177 12.416L6.01618 6.5L0.100177 0.583977C0.036027 0.519816 -7.85798e-06 0.432799 1.28532e-09 0.342068C3.8928e-06 0.297144 0.00885635 0.252659 0.026052 0.211155C0.0432476 0.169652 0.0684496 0.131941 0.100219 0.100177C0.131989 0.0684133 0.169703 0.0432179 0.21121 0.0260295C0.252717 0.00884102 0.297203 -3.89023e-06 0.342128 1.28356e-09C0.432858 7.86055e-06 0.519869 0.0360577 0.584019 0.100219L6.5 6.01616L12.416 0.100219C12.4477 0.0684496 12.4855 0.0432476 12.527 0.026052C12.5685 0.00885635 12.6129 3.8928e-06 12.6579 1.28356e-09C12.7028 -3.89023e-06 12.7473 0.00884102 12.7888 0.0260295C12.8303 0.0432179 12.868 0.0684133 12.8998 0.100177C12.9316 0.131941 12.9568 0.169652 12.9739 0.211155C12.9911 0.252659 13 0.297144 13 0.342068C13 0.386993 12.9912 0.431479 12.974 0.472986C12.9568 0.514493 12.9316 0.552208 12.8998 0.583977L6.98382 6.5L12.8998 12.416Z" fill="white"/>
</svg>
