<svg width="54" height="41" viewBox="0 0 54 41" fill="none" xmlns="http://www.w3.org/2000/svg">
<path d="M34.7991 3.05035H2.11431C1.12216 3.05035 0.317871 3.85465 0.317871 4.84679V12.9524C0.317871 13.9445 1.12216 14.7488 2.11431 14.7488H34.7991C35.7913 14.7488 36.5956 13.9445 36.5956 12.9524V4.84679C36.5956 3.85465 35.7913 3.05035 34.7991 3.05035Z" fill="white"/>
<path d="M36.5954 10.3723V14.0481C36.5954 14.4353 35.8152 14.7488 34.8585 14.7488H2.05669C1.09712 14.7488 0.319824 14.4353 0.319824 14.0481V11.9205C2.53115 12.5063 5.04886 12.9013 7.63111 13.1467C10.7516 13.4431 13.9679 13.5297 17.1707 13.5424C21.0005 13.558 24.8941 13.4651 28.499 12.9453C31.8025 12.4701 34.8656 11.5942 36.5954 10.3723Z" fill="#E8F0F9"/>
<path d="M34.7649 15.046H2.08012C1.52874 15.0454 1.00008 14.8262 0.610126 14.4363C0.22017 14.0465 0.000750922 13.5179 0 12.9665L0 4.86024C0.000750922 4.30885 0.22017 3.78027 0.610126 3.39045C1.00008 3.00062 1.52874 2.78139 2.08012 2.78082H34.7649C35.3164 2.78139 35.8452 3.00072 36.2352 3.3907C36.6252 3.78068 36.8445 4.30944 36.8451 4.86095V12.9673C36.8441 13.5185 36.6246 14.0469 36.2347 14.4366C35.8447 14.8263 35.3162 15.0454 34.7649 15.046ZM2.08012 3.34819C1.67915 3.34857 1.2947 3.50797 1.01111 3.79143C0.727516 4.07489 0.567934 4.45927 0.567371 4.86024V12.9665C0.567746 13.3676 0.727246 13.7522 1.01086 14.0358C1.29448 14.3194 1.67903 14.4789 2.08012 14.4793H34.7649C35.166 14.4789 35.5506 14.3194 35.8342 14.0358C36.1178 13.7522 36.2773 13.3676 36.2777 12.9665V4.86024C36.2773 4.45914 36.1178 4.07459 35.8342 3.79097C35.5506 3.50736 35.166 3.34786 34.7649 3.34748L2.08012 3.34819Z" fill="#314E5D"/>
<path d="M51.182 21.2062H13.8213C12.8292 21.2062 12.0249 22.0105 12.0249 23.0026V31.1082C12.0249 32.1004 12.8292 32.9047 13.8213 32.9047H51.182C52.1741 32.9047 52.9784 32.1004 52.9784 31.1082V23.0026C52.9784 22.0105 52.1741 21.2062 51.182 21.2062Z" fill="white"/>
<path d="M52.9784 28.5281V32.204C52.9784 32.5912 52.1004 32.9047 51.0175 32.9047H13.9859C12.9029 32.9047 12.0249 32.5912 12.0249 32.204V30.0763C14.5213 30.6622 17.3639 31.0572 20.2787 31.3026C23.7978 31.599 27.4319 31.6856 31.0481 31.6983C35.3701 31.7139 39.7672 31.621 43.8367 31.1012C47.5678 30.626 51.026 29.7501 52.9784 28.5281Z" fill="#E8F0F9"/>
<path d="M26.8311 21.2353C22.973 21.4665 17.6113 21.2431 14.2844 22.0934C12.705 22.4963 12.3156 23.2778 12.061 23.9239L12.066 22.1147C12.066 21.8828 12.088 21.6303 12.5071 21.453C13.0256 21.2346 13.9355 21.2175 14.7369 21.2183C18.6716 21.2197 22.9744 21.0636 26.8311 21.2353Z" fill="#4ED9FF"/>
<path d="M51.1436 33.2018H13.7823C13.2309 33.2013 12.7022 32.982 12.3123 32.5922C11.9223 32.2024 11.7029 31.6738 11.7021 31.1224V23.0161C11.7027 22.4646 11.922 21.9358 12.312 21.5458C12.702 21.1559 13.2308 20.9365 13.7823 20.936H51.1436C51.6951 20.9365 52.2239 21.1559 52.6139 21.5458C53.0039 21.9358 53.2232 22.4646 53.2238 23.0161V31.1224C53.223 31.6738 53.0036 32.2024 52.6136 32.5922C52.2237 32.982 51.695 33.2013 51.1436 33.2018ZM13.7823 21.5041C13.3813 21.5044 12.9969 21.6638 12.7133 21.9473C12.4297 22.2308 12.2701 22.6151 12.2695 23.0161V31.1224C12.2699 31.5235 12.4294 31.9081 12.713 32.1917C12.9966 32.4753 13.3812 32.6348 13.7823 32.6352H51.1436C51.5447 32.6348 51.9293 32.4753 52.2129 32.1917C52.4965 31.9081 52.656 31.5235 52.6564 31.1224V23.0161C52.656 22.615 52.4965 22.2304 52.2129 21.9468C51.9293 21.6632 51.5447 21.5037 51.1436 21.5033L13.7823 21.5041Z" fill="#314E5D"/>
<path d="M45.989 0.239685H8.63335C7.64121 0.239685 6.83691 1.04398 6.83691 2.03612V35.3826C6.83691 36.3748 7.64121 37.1791 8.63335 37.1791H45.989C46.9812 37.1791 47.7855 36.3748 47.7855 35.3826V2.03612C47.7855 1.04398 46.9812 0.239685 45.989 0.239685Z" fill="#1DCDFF"/>
<path d="M47.7856 23.36V34.9642C47.7856 36.1862 46.9076 37.1762 45.8246 37.1762H8.79447C7.7115 37.1762 6.8335 36.1833 6.8335 34.9642V28.2536C9.32993 30.1032 12.1717 31.3515 15.0859 32.1266C18.605 33.0635 22.2383 33.3373 25.8539 33.377C30.1758 33.4259 34.5715 33.1323 38.641 31.4905C42.3757 29.9855 45.8339 27.2182 47.7856 23.36Z" fill="#1AB5E1"/>
<path d="M21.6415 0.332636C17.7841 1.06384 12.426 0.358168 9.09621 3.04183C7.5175 4.31416 7.12814 6.78151 6.87354 8.82192L6.87921 3.11063C6.87921 2.37943 6.90119 1.58014 7.32034 1.02199C7.83877 0.332636 8.7487 0.279445 9.5494 0.279445C13.4827 0.2837 17.7848 -0.199983 21.6415 0.332636Z" fill="#4ED9FF"/>
<path d="M45.9507 37.5068H8.59428C8.04277 37.5062 7.51401 37.2869 7.12404 36.8969C6.73406 36.5069 6.51472 35.9781 6.51416 35.4266V2.08012C6.51472 1.52861 6.73406 0.999853 7.12404 0.609876C7.51401 0.219899 8.04277 0.000563245 8.59428 0L45.9507 0C46.5022 0.000563245 47.031 0.219899 47.4209 0.609876C47.8109 0.999853 48.0302 1.52861 48.0308 2.08012V35.4273C48.0301 35.9787 47.8106 36.5073 47.4207 36.8971C47.0307 37.287 46.5021 37.5062 45.9507 37.5068ZM8.59428 0.567371C8.19319 0.567746 7.80864 0.727246 7.52502 1.01086C7.24141 1.29448 7.08191 1.67903 7.08153 2.08012V35.4273C7.08191 35.8284 7.24141 36.213 7.52502 36.4966C7.80864 36.7802 8.19319 36.9397 8.59428 36.9401H45.9507C46.3518 36.9397 46.7363 36.7802 47.0199 36.4966C47.3036 36.213 47.4631 35.8284 47.4634 35.4273V2.08012C47.4631 1.67903 47.3036 1.29448 47.0199 1.01086C46.7363 0.727246 46.3518 0.567746 45.9507 0.567371H8.59428Z" fill="#314E5D"/>
<path d="M43.1182 2.62128H11.6702C11.049 2.62128 10.5454 3.12487 10.5454 3.74609V33.3026C10.5454 33.9238 11.049 34.4274 11.6702 34.4274H43.1182C43.7394 34.4274 44.243 33.9238 44.243 33.3026V3.74609C44.243 3.12487 43.7394 2.62128 43.1182 2.62128Z" fill="white"/>
<path d="M44.189 3.52337V9.6992H10.4893V3.52337C10.4893 3.04962 10.9715 2.66522 11.5666 2.66522H43.1117C43.7067 2.66522 44.189 3.04962 44.189 3.52337Z" fill="#DCEAEF"/>
<path d="M43.0777 34.8876H11.6312C11.2577 34.8872 10.8997 34.7387 10.6356 34.4747C10.3715 34.2106 10.223 33.8526 10.2227 33.4791V3.69215C10.2232 3.31883 10.3718 2.96098 10.6359 2.69707C10.8999 2.43316 11.2578 2.28474 11.6312 2.28436H43.0777C43.4511 2.28474 43.8092 2.43325 44.0732 2.69732C44.3373 2.96138 44.4858 3.31942 44.4862 3.69286V33.4798C44.4856 33.8531 44.337 34.211 44.073 34.4749C43.8089 34.7388 43.451 34.8872 43.0777 34.8876ZM11.6312 2.85173C11.4082 2.85211 11.1945 2.94085 11.0368 3.09851C10.8791 3.25617 10.7904 3.4699 10.79 3.69286V33.4798C10.7906 33.7027 10.8794 33.9162 11.0371 34.0737C11.1947 34.2312 11.4083 34.3199 11.6312 34.3202H43.0777C43.3006 34.3199 43.5144 34.2311 43.672 34.0735C43.8297 33.9158 43.9184 33.7021 43.9188 33.4791V3.69215C43.9182 3.46931 43.8294 3.25576 43.6718 3.09826C43.5141 2.94075 43.3005 2.85211 43.0777 2.85173H11.6312Z" fill="#314E5D"/>
<path d="M14.2915 6.77936H28.624V8.01764H14.2915V6.77936Z" fill="white"/>
<path d="M20.8564 12.7467H13.8445V12.4524H20.8564V12.7467Z" fill="#CED5D8"/>
<path d="M29.106 13.3949H13.8444V13.1006H29.106V13.3949Z" fill="#CED5D8"/>
<path d="M20.8564 14.0432H13.8445V13.7488H20.8564V14.0432Z" fill="#CED5D8"/>
<path d="M29.106 14.6913H13.8444V14.397H29.106V14.6913Z" fill="#CED5D8"/>
<path d="M20.8564 15.3396H13.8445V15.0453H20.8564V15.3396Z" fill="#CED5D8"/>
<path d="M29.106 15.9871H13.8444V15.6927H29.106V15.9871Z" fill="#CED5D8"/>
<path d="M20.8564 18.6041H13.8445V18.3097H20.8564V18.6041Z" fill="#CED5D8"/>
<path d="M29.106 19.2523H13.8444V18.958H29.106V19.2523Z" fill="#CED5D8"/>
<path d="M20.8564 19.9005H13.8445V19.6062H20.8564V19.9005Z" fill="#CED5D8"/>
<path d="M29.106 20.5488H13.8444V20.2544H29.106V20.5488Z" fill="#CED5D8"/>
<path d="M20.8564 21.197H13.8445V20.9026H20.8564V21.197Z" fill="#CED5D8"/>
<path d="M29.106 21.8445H13.8444V21.5502H29.106V21.8445Z" fill="#CED5D8"/>
<path d="M20.8564 24.4615H13.8445V24.1672H20.8564V24.4615Z" fill="#CED5D8"/>
<path d="M29.106 25.1097H13.8444V24.8154H29.106V25.1097Z" fill="#CED5D8"/>
<path d="M20.8564 25.7579H13.8445V25.4636H20.8564V25.7579Z" fill="#CED5D8"/>
<path d="M29.106 26.4061H13.8444V26.1118H29.106V26.4061Z" fill="#CED5D8"/>
<path d="M20.8564 27.0544H13.8445V26.7601H20.8564V27.0544Z" fill="#CED5D8"/>
<path d="M29.106 27.7019H13.8444V27.4076H29.106V27.7019Z" fill="#CED5D8"/>
<path d="M42.7783 4.60419H37.5145V3.98504H42.7783V4.60419Z" fill="#EEA248"/>
<path d="M36.7886 4.60419H31.5248V3.98504H36.7886V4.60419Z" fill="#EEA248"/>
<path d="M12.1636 4.89146C12.4934 4.89146 12.7607 4.6241 12.7607 4.2943C12.7607 3.9645 12.4934 3.69714 12.1636 3.69714C11.8338 3.69714 11.5664 3.9645 11.5664 4.2943C11.5664 4.6241 11.8338 4.89146 12.1636 4.89146Z" fill="#EEA248"/>
<path d="M31.3711 28.489L33.2752 26.6834L37.1388 30.7576L35.2347 32.5632L31.3711 28.489Z" fill="#314E5D"/>
<g opacity="0.5">
<path d="M31.6231 26.7479C34.1046 24.3947 34.2086 20.4754 31.8554 17.9939C29.5022 15.5125 25.583 15.4085 23.1015 17.7616C20.62 20.1148 20.516 24.0341 22.8692 26.5156C25.2224 28.997 29.1417 29.101 31.6231 26.7479Z" fill="#8BDDEB"/>
<path d="M24.0992 25.8331C23.473 25.1731 23 24.3832 22.7139 23.5195C22.4278 22.6559 22.3356 21.7398 22.444 20.8364C22.5523 19.9331 22.8585 19.0648 23.3407 18.2933C23.823 17.5218 24.4694 16.8661 25.2339 16.3729C24.4159 16.6727 23.6703 17.1418 23.0459 17.7494C22.4215 18.3571 21.9324 19.0896 21.6105 19.8993C21.2886 20.7089 21.1412 21.5773 21.1779 22.4478C21.2146 23.3183 21.4345 24.1713 21.8234 24.9509C22.2123 25.7306 22.7614 26.4194 23.4347 26.9723C24.108 27.5253 24.8905 27.9299 25.7309 28.1597C26.5713 28.3896 27.4507 28.4395 28.3117 28.3063C29.1727 28.173 29.9959 27.8595 30.7275 27.3863C29.5917 27.8032 28.3587 27.8782 27.1808 27.6022C26.0028 27.3262 24.9315 26.7112 24.0992 25.8331Z" fill="#62D6F8"/>
</g>
<path d="M34.1201 15.6438C33.4453 14.9305 32.6642 14.326 31.8046 13.8516C31.7897 13.8424 31.7748 13.8346 31.7585 13.8268C29.771 12.7445 27.4634 12.4042 25.2481 12.8669C23.0329 13.3296 21.0544 14.565 19.6662 16.3523C18.2781 18.1396 17.5709 20.3624 17.671 22.6232C17.771 24.8841 18.6719 27.0356 20.2125 28.6933C20.2344 28.7182 20.2571 28.7423 20.2834 28.7643C20.9878 29.509 21.8081 30.1348 22.7124 30.6174L22.738 30.6309C24.7365 31.688 27.0455 32.0006 29.2532 31.513C31.4608 31.0254 33.4234 29.7693 34.7908 27.9689C36.1582 26.1684 36.8414 23.9407 36.7186 21.6832C36.5957 19.4257 35.6748 17.2853 34.1201 15.6438ZM31.7875 17.9942C32.6303 18.8828 33.1906 20.0013 33.3977 21.2084C33.6047 22.4155 33.4492 23.6568 32.9507 24.7755C32.4522 25.8942 31.6333 26.8399 30.5973 27.4931C29.5613 28.1463 28.3549 28.4776 27.1307 28.4452C25.9064 28.4128 24.7192 28.018 23.7193 27.3109C22.7194 26.6037 21.9516 25.616 21.5131 24.4725C21.0746 23.329 20.985 22.0811 21.2556 20.8867C21.5263 19.6923 22.1451 18.605 23.0337 17.7622C23.6237 17.2027 24.3182 16.7648 25.0775 16.4736C25.8367 16.1825 26.6459 16.0437 27.4588 16.0653C28.2717 16.0869 29.0724 16.2684 29.8151 16.5995C30.5578 16.9306 31.2281 17.4047 31.7875 17.9949V17.9942Z" fill="#E7E7E7"/>
<path d="M34.7888 27.76C33.1695 29.2957 31.063 30.2148 28.836 30.3574C26.6089 30.5 24.4024 29.8571 22.6005 28.5405C20.7987 27.2238 19.5156 25.317 18.9748 23.1519C18.434 20.9868 18.6696 18.7006 19.6407 16.6913C18.8557 17.7599 18.3021 18.9803 18.0153 20.2748C17.7285 21.5693 17.7148 22.9094 17.975 24.2095C18.2353 25.5096 18.7637 26.7411 19.5267 27.8255C20.2897 28.9098 21.2703 29.8232 22.4061 30.5072C23.5419 31.1913 24.8079 31.631 26.1232 31.7982C27.4385 31.9655 28.7742 31.8567 30.045 31.4787C31.3159 31.1007 32.494 30.4619 33.5041 29.603C34.5142 28.7442 35.3341 27.6841 35.9114 26.4905C35.5754 26.946 35.1997 27.3708 34.7888 27.76Z" fill="#CED0D0"/>
<path d="M27.2806 32.0756C25.6479 32.0764 24.0411 31.6672 22.6076 30.8855L22.5721 30.8664C20.4903 29.721 18.8924 27.862 18.0729 25.6317C18.0544 25.5834 18.0367 25.5331 18.0204 25.4813C17.373 23.6186 17.3014 21.6041 17.8148 19.7001C18.3282 17.7961 19.403 16.0907 20.8991 14.806C22.3952 13.5213 24.2435 12.7167 26.2032 12.497C28.163 12.2774 30.1435 12.6528 31.8869 13.5743C31.9061 13.5836 31.9252 13.5942 31.9437 13.6048C33.7789 14.5915 35.2528 16.1363 36.1522 18.0159C37.0515 19.8955 37.3297 22.0125 36.9465 24.0606C36.5633 26.1088 35.5385 27.9819 34.0205 29.4092C32.5024 30.8366 30.5697 31.744 28.5019 32.0004C28.0967 32.0504 27.6888 32.0755 27.2806 32.0756ZM27.2969 12.9977C25.8199 12.9983 24.3645 13.3522 23.0521 14.0299C21.7398 14.7076 20.6086 15.6895 19.7532 16.8935C18.8977 18.0975 18.3427 19.4888 18.1345 20.951C17.9263 22.4133 18.0711 23.9041 18.5566 25.2991V25.3076C18.57 25.3501 18.5856 25.3927 18.6012 25.4345C19.3735 27.5383 20.8806 29.2917 22.8445 30.3713L22.8693 30.3848C24.8055 31.4439 27.0565 31.776 29.216 31.3212C31.3755 30.8663 33.3013 29.6545 34.6458 27.9044C35.9903 26.1543 36.6649 23.9812 36.5479 21.7774C36.4308 19.5736 35.5298 17.4842 34.0075 15.8864C33.3293 15.1693 32.5403 14.5658 31.6706 14.0992L31.66 14.0928L31.6373 14.0807L31.6267 14.075C30.293 13.368 28.8064 12.9988 27.2969 12.9999V12.9977ZM27.2969 28.7288C27.238 28.7288 27.1799 28.7288 27.121 28.7288C25.4134 28.7056 23.7842 28.0079 22.589 26.7881C21.3938 25.5682 20.7295 23.9252 20.7411 22.2174C20.7527 20.5096 21.4393 18.8758 22.651 17.6723C23.8627 16.4688 25.5012 15.7934 27.209 15.7934C28.9168 15.7934 30.5553 16.4688 31.767 17.6723C32.9787 18.8758 33.6652 20.5096 33.6768 22.2174C33.6885 23.9252 33.0242 25.5682 31.829 26.7881C30.6337 28.0079 29.0046 28.7056 27.2969 28.7288ZM27.2891 16.3445C25.7769 16.3414 24.3219 16.9222 23.2274 17.9658C22.2358 18.9063 21.6009 20.1616 21.4309 21.5177C21.261 22.8739 21.5665 24.247 22.2954 25.4031C23.0244 26.5592 24.1316 27.4269 25.4285 27.8582C26.7254 28.2895 28.1318 28.2578 29.4079 27.7684C30.6841 27.2791 31.7511 26.3625 32.4272 25.1746C33.1032 23.9868 33.3465 22.6013 33.1156 21.2542C32.8847 19.9071 32.1939 18.6817 31.1608 17.7869C30.1277 16.892 28.8164 16.383 27.4501 16.3466C27.3976 16.3466 27.3447 16.3466 27.2912 16.3466L27.2891 16.3445Z" fill="#314E5D"/>
<path d="M34.7971 30.0293L34.7966 30.0298C33.9883 30.7963 33.9544 32.073 34.7209 32.8813L40.4555 38.9285C41.222 39.7368 42.4987 39.7707 43.307 39.0042L43.3075 39.0037C44.1158 38.2372 44.1497 36.9606 43.3832 36.1522L37.6486 30.105C36.882 29.2967 35.6054 29.2628 34.7971 30.0293Z" fill="#426372"/>
<path d="M41.8358 39.84H41.7727C41.4707 39.8333 41.173 39.7667 40.8969 39.6441C40.6208 39.5215 40.3718 39.3453 40.1642 39.1259L34.4302 33.0777C34.2223 32.8584 34.0596 32.6004 33.9514 32.3183C33.8432 32.0362 33.7916 31.7355 33.7996 31.4334C33.8076 31.1314 33.8751 30.8339 33.998 30.5579C34.121 30.2819 34.2972 30.0328 34.5164 29.8249C34.7356 29.617 34.9937 29.4543 35.2758 29.3461C35.5579 29.2379 35.8586 29.1863 36.1606 29.1943C36.4627 29.2023 36.7602 29.2697 37.0362 29.3927C37.3122 29.5157 37.5613 29.6918 37.7692 29.9111L43.5039 35.9571C43.9223 36.4006 44.1481 36.9917 44.1319 37.6012C44.1157 38.2107 43.8588 38.7889 43.4174 39.2095C42.9912 39.6158 42.4246 39.8417 41.8358 39.84ZM36.099 29.7621C35.7605 29.7629 35.4296 29.8627 35.1472 30.0492C34.8647 30.2358 34.643 30.5008 34.5093 30.8118C34.3756 31.1228 34.3359 31.4661 34.3949 31.7994C34.454 32.1327 34.6092 32.4415 34.8416 32.6876L40.5756 38.7344C40.8927 39.0666 41.3285 39.26 41.7876 39.2722C42.2468 39.2844 42.6922 39.1145 43.0266 38.7996C43.3589 38.4824 43.5522 38.0467 43.5644 37.5875C43.5766 37.1284 43.4068 36.683 43.0919 36.3486L37.3579 30.3018C37.1959 30.1309 37.0006 29.9948 36.7842 29.902C36.5677 29.8092 36.3345 29.7616 36.099 29.7621Z" fill="#314E5D"/>
<g opacity="0.5">
<path d="M36.7302 30.7855C37.4394 31.3813 37.9877 32.1224 38.6501 32.7635C38.8472 32.9543 39.1465 32.6536 38.9508 32.4628C38.2884 31.8245 37.7401 31.0806 37.0309 30.4848C36.8224 30.3097 36.5203 30.6089 36.7302 30.7855Z" fill="white"/>
<path d="M35.5062 30.6515C35.6198 30.5811 35.7475 30.5366 35.8803 30.5211C36.013 30.5057 36.1475 30.5197 36.2743 30.5621C36.5374 30.6387 36.6502 30.2281 36.3877 30.1515C36.2061 30.0942 36.0144 30.0763 35.8253 30.0991C35.6362 30.1218 35.4541 30.1846 35.2913 30.2834C35.0565 30.4252 35.27 30.7919 35.5041 30.6508L35.5062 30.6515Z" fill="white"/>
</g>
<path d="M29.6487 14.4786C30.7798 14.8226 31.8437 15.3729 32.7273 16.158C33.8493 17.1509 34.6124 18.4545 35.0791 19.87C35.1642 20.1289 35.5756 20.0183 35.4897 19.7566C35.0011 18.2743 34.2039 16.8992 33.0288 15.8559C32.0869 15.0204 30.9621 14.4375 29.7628 14.0673C29.5004 13.9871 29.3884 14.3978 29.6494 14.4779L29.6487 14.4786Z" fill="white"/>
<path d="M25.5158 14.0836C26.2555 13.9857 27.0222 14.0219 27.7612 14.097C28.0335 14.1247 28.0314 13.6992 27.7612 13.6715C27.0222 13.5963 26.2555 13.5602 25.5158 13.658C25.2485 13.6935 25.2449 14.1197 25.5158 14.0836Z" fill="white"/>
</svg>
