<svg width="52" height="73" viewBox="0 0 52 73" fill="none" xmlns="http://www.w3.org/2000/svg">
<path d="M15.5681 12.5154V18.7513H14.409C13.7947 18.7532 13.2062 18.998 12.7718 19.4323C12.3375 19.8667 12.0927 20.4553 12.0908 21.0695V15.2741C12.9343 14.0148 14.15 13.0504 15.5681 12.5154Z" fill="#40240F"/>
<path d="M39.9089 15.2741V21.0695C39.9071 20.4553 39.6623 19.8667 39.2279 19.4323C38.7936 18.998 38.205 18.7532 37.5907 18.7513H36.4316V12.5154C37.8497 13.0504 39.0654 14.0148 39.9089 15.2741Z" fill="#40240F"/>
<path d="M50.5613 59.2616L51.5002 62.7968H48.0229H41.0684V59.3195H50.3411L50.5613 59.2616Z" fill="#13969D"/>
<path d="M48.0229 62.7968V72.0695H41.0684V66.2741V62.7968H48.0229Z" fill="#F2C4B2"/>
<path d="M46.8636 45.4104L35.1104 42.0491L26 48.8877L16.8895 42.0491L5.13634 45.4104L1.42725 59.3195H10.9318V72.0695H41.0682V59.3195H50.3409L50.5611 59.2616L46.8636 45.4104ZM35.2727 68.5923H31.7954C31.1812 68.5904 30.5926 68.3456 30.1583 67.9113C29.7239 67.4769 29.4791 66.8883 29.4773 66.2741V59.3195H37.5909V66.2741C37.5891 66.8883 37.3442 67.4769 36.9099 67.9113C36.4755 68.3456 35.887 68.5904 35.2727 68.5923Z" fill="#34C1AD"/>
<path d="M39.909 21.0695V22.6807C39.9099 23.2544 39.7686 23.8195 39.4975 24.3252C39.2264 24.8309 38.8342 25.2615 38.3558 25.5784L36.4317 26.865C33.1541 25.3735 29.6008 24.5838 25.9999 24.5468C22.3991 24.5838 18.8457 25.3735 15.5681 26.865L13.644 25.5784C13.1657 25.2615 12.7734 24.8309 12.5023 24.3252C12.2313 23.8195 12.0899 23.2544 12.0908 22.6807V21.0695C12.0927 20.4553 12.3375 19.8667 12.7718 19.4324C13.2062 18.998 13.7948 18.7532 14.409 18.7514H15.5681V12.5154C18.8649 11.1296 22.4268 10.4885 25.9999 10.6377C29.573 10.4885 33.135 11.1296 36.4317 12.5154V18.7514H37.5908C38.2051 18.7532 38.7937 18.998 39.228 19.4324C39.6624 19.8667 39.9072 20.4553 39.909 21.0695Z" fill="#F2C4B2"/>
<path d="M36.4317 12.5154C33.135 11.1296 29.573 10.4884 25.9999 10.6377C22.4268 10.4884 18.8649 11.1296 15.5681 12.5154C14.15 13.0504 12.9343 14.0148 12.0908 15.2741V9.4786C12.0908 7.01932 13.0678 4.66077 14.8067 2.92179C16.5457 1.18282 18.9043 0.205872 21.3635 0.205872H30.6363C33.0956 0.205872 35.4541 1.18282 37.1931 2.92179C38.9321 4.66077 39.909 7.01932 39.909 9.4786V15.2741C39.0655 14.0148 37.8498 13.0504 36.4317 12.5154Z" fill="#34C1AD"/>
<path d="M15.5681 14.8336V12.5154C14.15 13.0504 12.9343 14.0148 12.0908 15.2741V17.5922C12.9343 16.333 14.15 15.3686 15.5681 14.8336Z" fill="#241408"/>
<path d="M36.4316 12.5154V14.8336C37.8497 15.3686 39.0654 16.333 39.9089 17.5922V15.2741C39.0654 14.0148 37.8497 13.0504 36.4316 12.5154Z" fill="#241408"/>
<path d="M26.0002 12.9559C29.5733 12.8066 33.1352 13.4478 36.432 14.8336V12.5154C33.1352 11.1296 29.5733 10.4885 26.0002 10.6377C22.4271 10.4885 18.8651 11.1296 15.5684 12.5154V14.8336C18.8651 13.4478 22.4271 12.8066 26.0002 12.9559Z" fill="#F2A283"/>
<path d="M37.5907 59.3195V66.2741C37.5889 66.8883 37.344 67.4769 36.9097 67.9112C36.4753 68.3456 35.8868 68.5904 35.2725 68.5922H31.7952C31.181 68.5904 30.5924 68.3456 30.1581 67.9112C29.7237 67.4769 29.4789 66.8883 29.4771 66.2741V59.3195H37.5907Z" fill="#13969D"/>
<path d="M35.1106 42.0491L26.0001 48.8877L16.8896 42.0491L21.3637 40.7741L26.0001 44.2513L30.6365 40.7741L35.1106 42.0491Z" fill="#13969D"/>
<path d="M30.6365 33.9122C29.1917 34.614 27.6064 34.9786 26.0002 34.9786C24.3939 34.9786 22.8087 34.614 21.3638 33.9122C19.9292 33.2502 18.6628 32.2725 17.6592 31.0521C16.6557 29.8318 15.9409 28.4004 15.5684 26.865C18.846 25.3734 22.3993 24.5838 26.0002 24.5468C29.601 24.5838 33.1544 25.3734 36.432 26.865C36.0595 28.4004 35.3447 29.8318 34.3411 31.0521C33.3376 32.2725 32.0711 33.2502 30.6365 33.9122Z" fill="#13969D"/>
<path d="M30.6365 33.9122V40.774L26.0001 44.2513L21.3638 40.774V33.9122C22.8086 34.6139 24.3939 34.9785 26.0001 34.9785C27.6064 34.9785 29.1917 34.6139 30.6365 33.9122Z" fill="#F2B59D"/>
<path d="M3.97705 62.7968H10.9316V72.0695H3.97705V62.7968Z" fill="#F2C4B2"/>
<path d="M10.9318 59.3195V62.7968H3.97727H0.5L1.42727 59.3195H10.9318Z" fill="#13969D"/>
<path d="M48.0229 62.7968H41.0684V72.0695H44.5456V67.4332C44.5456 66.8184 44.7899 66.2287 45.2246 65.794C45.6594 65.3592 46.249 65.115 46.8638 65.115H48.0229V62.7968Z" fill="#F2A283"/>
<path d="M3.97705 62.7968H10.9316V72.0695H7.45432V67.4332C7.45432 66.8184 7.21009 66.2287 6.77534 65.794C6.3406 65.3592 5.75096 65.115 5.13614 65.115H3.97705V62.7968Z" fill="#F2A283"/>
<path d="M30.6365 33.9122C29.1917 34.6139 27.6064 34.9785 26.0001 34.9785C24.3939 34.9785 22.8086 34.6139 21.3638 33.9122V40.774L22.1821 41.3872L30.6365 35.7517V33.9122Z" fill="#F2A283"/>
<path d="M36.4316 19.9104V24.5468L37.4679 24.0287C37.8531 23.8362 38.177 23.5403 38.4034 23.174C38.6299 22.8077 38.7498 22.3857 38.7498 21.9551V21.0695C38.7498 20.7621 38.6277 20.4673 38.4103 20.2499C38.193 20.0326 37.8981 19.9104 37.5907 19.9104H36.4316Z" fill="#D9896D"/>
<path d="M15.5682 19.9104V24.5468L14.532 24.0287C14.1468 23.8362 13.8228 23.5403 13.5964 23.174C13.37 22.8077 13.25 22.3857 13.25 21.9551V21.0695C13.25 20.7621 13.3721 20.4673 13.5895 20.2499C13.8069 20.0326 14.1017 19.9104 14.4091 19.9104H15.5682Z" fill="#D9896D"/>
<path d="M26 24.5468C26.32 24.5468 26.5795 24.0278 26.5795 23.3877C26.5795 22.7475 26.32 22.2286 26 22.2286C25.6799 22.2286 25.4204 22.7475 25.4204 23.3877C25.4204 24.0278 25.6799 24.5468 26 24.5468Z" fill="#D9896D"/>
<path d="M28.7821 15.259C28.7661 15.2639 28.7498 15.2678 28.7334 15.2706C28.5016 15.3123 28.3242 14.9437 28.3242 14.691C28.3242 14.6203 28.3509 12.9524 30.6424 12.9524C32.9339 12.9524 32.9606 14.6203 32.9606 14.691C32.9639 14.7928 32.9418 14.8938 32.8963 14.9849C32.8508 15.0759 32.7832 15.1542 32.6998 15.2126C32.5317 15.3158 32.3671 15.2196 32.2362 15.0619C32.1724 14.9831 32.1202 14.8857 32.0542 14.8116C31.9863 14.7445 31.908 14.6889 31.8224 14.647C31.6193 14.5281 31.4045 14.4306 31.1814 14.356C30.8854 14.2713 30.5729 14.2615 30.2722 14.3277C29.9715 14.3939 29.692 14.5339 29.459 14.7351C29.2658 14.948 29.0366 15.1253 28.7821 15.259Z" fill="#43251A"/>
<path d="M23.2243 15.259C23.2402 15.2639 23.2565 15.2678 23.2729 15.2706C23.5048 15.3123 23.6821 14.9437 23.6821 14.691C23.6821 14.6203 23.6554 12.9524 21.3639 12.9524C19.0724 12.9524 19.0457 14.6203 19.0457 14.691C19.0424 14.7928 19.0645 14.8938 19.11 14.9849C19.1556 15.0759 19.2231 15.1542 19.3065 15.2126C19.4746 15.3158 19.6392 15.2196 19.7702 15.0619C19.8339 14.9831 19.8861 14.8857 19.9522 14.8116C20.02 14.7445 20.0983 14.6889 20.184 14.647C20.387 14.5281 20.6018 14.4306 20.8249 14.356C21.1209 14.2713 21.4334 14.2615 21.7341 14.3277C22.0348 14.3939 22.3143 14.5339 22.5474 14.7351C22.7406 14.948 22.9697 15.1253 23.2243 15.259Z" fill="#43251A"/>
<path d="M31.2162 22.8082C31.8564 22.8082 32.3753 21.7703 32.3753 20.49C32.3753 19.2097 31.8564 18.1718 31.2162 18.1718C30.5761 18.1718 30.0571 19.2097 30.0571 20.49C30.0571 21.7703 30.5761 22.8082 31.2162 22.8082Z" fill="#43251A"/>
<path d="M20.7841 22.8082C21.4242 22.8082 21.9432 21.7703 21.9432 20.49C21.9432 19.2097 21.4242 18.1718 20.7841 18.1718C20.1439 18.1718 19.625 19.2097 19.625 20.49C19.625 21.7703 20.1439 22.8082 20.7841 22.8082Z" fill="#43251A"/>
<path d="M34.1136 7.16042H21.3635C20.4413 7.16042 19.5569 6.79406 18.9047 6.14195C18.2526 5.48983 17.8863 4.60538 17.8863 3.68315C17.8863 2.76091 18.2526 1.87646 18.9047 1.22434C19.5569 0.572226 20.4413 0.205872 21.3635 0.205872C18.9043 0.205872 16.5457 1.18282 14.8067 2.92179C13.0678 4.66077 12.0908 7.01932 12.0908 9.4786V15.2741C12.9343 14.0148 14.15 13.0504 15.5681 12.5154C18.8649 11.1296 22.4268 10.4884 25.9999 10.6377C29.573 10.4884 33.135 11.1296 36.4317 12.5154C37.8498 13.0504 39.0655 14.0148 39.909 15.2741V12.9559C39.909 11.4188 39.2984 9.94473 38.2116 8.85787C37.1247 7.77101 35.6506 7.16042 34.1136 7.16042Z" fill="#21ABAB"/>
<path d="M36.4317 10.1972C33.135 8.81142 29.573 8.17027 25.9999 8.31951C22.4268 8.17027 18.8649 8.81142 15.5681 10.1972C14.15 10.7322 12.9343 11.6966 12.0908 12.9559V15.2741C12.9343 14.0148 14.15 13.0504 15.5681 12.5154C18.8649 11.1296 22.4268 10.4884 25.9999 10.6377C29.573 10.4884 33.135 11.1296 36.4317 12.5154C37.8498 13.0504 39.0655 14.0148 39.909 15.2741V12.9559C39.0655 11.6966 37.8498 10.7322 36.4317 10.1972Z" fill="#13969D"/>
<path d="M43.3865 61.6377V59.3195H41.0684V62.7968H48.0229H51.5002L51.1919 61.6377H43.3865Z" fill="#107C82"/>
<path d="M8.61364 61.6377H0.809478L0.5 62.7968H3.97727H10.9318V59.3195H8.61364V61.6377Z" fill="#107C82"/>
<path d="M41.0684 59.3195V51.2059C41.6832 51.2059 42.2728 51.4501 42.7076 51.8849C43.1423 52.3196 43.3865 52.9093 43.3865 53.5241V59.3195H41.0684Z" fill="#21ABAB"/>
<path d="M10.932 59.3195V51.2059C10.3171 51.2059 9.72749 51.4501 9.29275 51.8849C8.85801 52.3196 8.61377 52.9093 8.61377 53.5241V59.3195H10.932Z" fill="#21ABAB"/>
<path d="M22.655 42.231L23.0027 41.9992L21.3637 40.7741L16.8896 42.0491L26.0001 48.8877L27.2195 47.972L22.5564 44.0856C22.4179 43.9701 22.3082 43.824 22.2361 43.6587C22.164 43.4935 22.1314 43.3137 22.141 43.1336C22.1505 42.9536 22.202 42.7782 22.2912 42.6215C22.3804 42.4648 22.505 42.3311 22.655 42.231Z" fill="#107C82"/>
<path d="M35.2726 68.5922H31.7953C31.1982 68.5904 30.6248 68.3581 30.1947 67.944C29.7646 67.5299 29.5109 66.9657 29.4864 66.3691C18.5816 64.2758 10.9316 59.3195 10.9316 53.5241V72.0695H41.068V67.4332C39.8 67.4332 38.5539 67.3926 37.3265 67.323C37.1337 67.7029 36.8401 68.0222 36.4778 68.2461C36.1155 68.47 35.6985 68.5898 35.2726 68.5922Z" fill="#21ABAB"/>
<path d="M29.4771 59.3195H37.5907V61.6377H29.4771V59.3195Z" fill="#107C82"/>
<path d="M19.1245 25.5564C17.9051 25.8941 16.7157 26.3318 15.5684 26.865C15.9409 28.4004 16.6557 29.8318 17.6592 31.0521C18.6628 32.2725 19.9292 33.2502 21.3638 33.9123C22.8087 34.614 24.3939 34.9786 26.0002 34.9786C27.6064 34.9786 29.1917 34.614 30.6365 33.9123C30.7165 33.874 30.7919 33.8253 30.8684 33.7859C24.7182 33.4648 19.7817 29.9841 19.1245 25.5564Z" fill="#107C82"/>
<path d="M14.9885 41.9332V64.6966L11.9076 65.7235C11.7921 65.762 11.6916 65.8359 11.6205 65.9347C11.5493 66.0336 11.5111 66.1523 11.5112 66.2741V72.0695H12.6703V66.6914L15.568 65.7258L18.4658 66.6914V72.0695H19.6249V66.2741C19.625 66.1523 19.5868 66.0336 19.5156 65.9347C19.4445 65.8359 19.344 65.762 19.2285 65.7235L16.1476 64.6977V41.9332C16.1476 41.1646 16.4529 40.4276 16.9963 39.8842C17.5397 39.3407 18.2768 39.0354 19.0453 39.0354H21.3635V37.8763H19.0453C17.9694 37.8763 16.9375 38.3038 16.1767 39.0646C15.4159 39.8254 14.9885 40.8572 14.9885 41.9332Z" fill="#E3E3E3"/>
<path d="M32.9544 37.8763H30.6362V39.0354H32.9544C33.7229 39.0354 34.46 39.3407 35.0034 39.8842C35.5468 40.4276 35.8521 41.1646 35.8521 41.9332V59.3195H37.0112V41.9332C37.0112 40.8572 36.5838 39.8254 35.823 39.0646C35.0622 38.3038 34.0303 37.8763 32.9544 37.8763Z" fill="#E3E3E3"/>
</svg>
