<svg width="93" height="40" viewBox="0 0 93 40" fill="none" xmlns="http://www.w3.org/2000/svg">
<circle cx="20" cy="20" r="20" fill="#F94949"/>
<path d="M8.77592 18.657C9.38468 18.0774 10.4495 17.4834 12.4111 16.9796C14.7997 16.3703 16.7717 16.0297 19.7911 16.0998C22.7051 16.1704 24.3516 16.4447 27.1306 17.327C30.2689 18.3226 31.1159 19.6044 31.3427 20.2809C31.6146 21.0887 31.5484 21.7897 31.3672 22.5954C31.2609 23.0496 31.113 23.4929 30.9254 23.9199C30.9069 23.963 30.8901 24.0034 30.8752 24.0396C30.7871 24.2561 30.6532 24.5839 30.2501 24.7537C29.9817 24.8677 29.6605 24.8839 29.1244 24.8741C28.0257 24.8548 26.0663 24.3474 25.1986 24.0081C24.6146 23.7788 24.2287 23.6277 23.938 23.323C23.598 22.9659 23.5155 22.5195 23.4505 22.0147C23.4382 21.92 23.428 21.8281 23.418 21.7389C23.3584 21.201 23.3246 21.0613 23.1371 20.9331C22.7596 20.6759 21.3244 20.2069 19.6623 20.168C18.0003 20.129 16.6027 20.5334 16.2121 20.7732C16.0102 20.8971 15.9699 21.039 15.882 21.5911C15.8694 21.6703 15.8567 21.752 15.8419 21.8357C15.7449 22.3995 15.6489 22.8245 15.3002 23.1564L15.2983 23.1582C14.9949 23.4471 14.6098 23.5629 13.9728 23.7556C13.1418 24.0069 11.132 24.4632 10.0295 24.4312C9.49355 24.416 9.17358 24.3853 8.91109 24.2588C8.51584 24.0685 8.39976 23.7349 8.32022 23.5133C8.30711 23.4765 8.29288 23.4359 8.2763 23.3916C8.11137 22.9555 7.98691 22.5052 7.90452 22.0463C7.76391 21.2348 7.73427 20.5311 8.04647 19.7362C8.20474 19.3259 8.45417 18.9568 8.77592 18.657Z" fill="white"/>
<circle cx="73" cy="20" r="20" fill="#37F756"/>
<path d="M77.606 30.1613C76.7708 30.0665 75.6319 29.6312 73.9865 28.4502C71.9862 27.0097 70.4594 25.716 68.5753 23.3556C66.7591 21.0756 65.9127 19.6369 64.8057 16.9395C63.5549 13.8939 63.9943 12.4217 64.3675 11.8136C64.8124 11.0866 65.3925 10.6875 66.1267 10.3093C66.5431 10.0994 66.9781 9.92822 67.4259 9.79809C67.4708 9.78455 67.5126 9.77153 67.5499 9.75973C67.7725 9.68836 68.1098 9.58061 68.4988 9.78079C68.7585 9.91342 68.977 10.1493 69.3136 10.5667C70.0039 11.4217 70.8724 13.2499 71.1691 14.1331C71.3681 14.7281 71.4999 15.121 71.4528 15.5395C71.3972 16.0294 71.1078 16.3792 70.7624 16.753C70.6977 16.8233 70.6338 16.8901 70.5718 16.955C70.1976 17.3459 70.1121 17.4614 70.1341 17.6876C70.1791 18.1421 70.7407 19.5437 71.7776 20.8432C72.8145 22.1428 74.0215 22.9551 74.4561 23.1006C74.6807 23.176 74.8154 23.1158 75.2952 22.8288C75.364 22.7877 75.4348 22.745 75.5085 22.7027C76.0031 22.4151 76.3906 22.216 76.869 22.2703L76.8715 22.2706C77.2879 22.3179 77.6238 22.5389 78.1804 22.9038C78.9064 23.3797 80.5463 24.6281 81.2294 25.494C81.5617 25.9148 81.7435 26.1799 81.815 26.4623C81.9227 26.8876 81.7414 27.1907 81.6226 27.3939C81.6027 27.4276 81.5807 27.4646 81.5574 27.5057C81.3289 27.9121 81.0634 28.2965 80.7644 28.6543C80.2323 29.2829 79.7117 29.7573 78.9017 30.0281C78.4855 30.1701 78.0424 30.2156 77.606 30.1613Z" fill="#FFF7F7"/>
</svg>
