<svg width="108" height="16" viewBox="0 0 108 16" fill="none" xmlns="http://www.w3.org/2000/svg">
<path d="M8 0L10.3511 4.76393L15.6085 5.52786L11.8042 9.23607L12.7023 14.4721L8 12L3.29772 14.4721L4.19577 9.23607L0.391548 5.52786L5.64886 4.76393L8 0Z" fill="#FFB61D"/>
<path d="M31 0L33.3511 4.76393L38.6085 5.52786L34.8042 9.23607L35.7023 14.4721L31 12L26.2977 14.4721L27.1958 9.23607L23.3915 5.52786L28.6489 4.76393L31 0Z" fill="#FFB61D"/>
<path d="M54 0L56.3511 4.76393L61.6085 5.52786L57.8042 9.23607L58.7023 14.4721L54 12L49.2977 14.4721L50.1958 9.23607L46.3915 5.52786L51.6489 4.76393L54 0Z" fill="#FFB61D"/>
<path d="M77 0L79.3511 4.76393L84.6085 5.52786L80.8042 9.23607L81.7023 14.4721L77 12L72.2977 14.4721L73.1958 9.23607L69.3915 5.52786L74.6489 4.76393L77 0Z" fill="#FFB61D"/>
<path d="M100 0L102.351 4.76393L107.608 5.52786L103.804 9.23607L104.702 14.4721L100 12L95.2977 14.4721L96.1958 9.23607L92.3915 5.52786L97.6489 4.76393L100 0Z" fill="#FFB61D"/>
</svg>
