<svg width="341" height="40" viewBox="0 0 341 40" fill="none" xmlns="http://www.w3.org/2000/svg">
<rect x="1" y="1" width="339" height="38" rx="9" fill="white" stroke="#D9D9D9" stroke-width="2"/>
<g clip-path="url(#clip0_340_1546)">
<path d="M325.966 10.6749H327.356V11.3436H325.966V10.6749Z" fill="#66757F"/>
<path d="M307.29 16.0247V29.3992C307.29 30.1086 307.584 30.789 308.106 31.2906C308.628 31.7923 309.337 32.0741 310.076 32.0741H326.792C327.531 32.0741 328.239 31.7923 328.762 31.2906C329.284 30.789 329.578 30.1086 329.578 29.3992V16.0247H307.29Z" fill="#CCD6DD"/>
<path d="M326.792 10.6749H310.076C309.337 10.6749 308.628 10.9567 308.106 11.4584C307.584 11.96 307.29 12.6404 307.29 13.3498V16.6934H329.578V13.3498C329.578 12.6404 329.284 11.96 328.762 11.4584C328.239 10.9567 327.531 10.6749 326.792 10.6749Z" fill="#DD2E44"/>
<path d="M312.051 13.8386C311.562 13.8386 311.166 13.3933 311.166 12.8429C311.166 12.2932 311.562 11.8472 312.051 11.8472C312.539 11.8472 312.936 12.2932 312.936 12.8429C312.936 13.3926 312.539 13.8386 312.051 13.8386ZM316.23 13.8386C315.741 13.8386 315.345 13.3933 315.345 12.8429C315.345 12.2932 315.741 11.8472 316.23 11.8472C316.718 11.8472 317.115 12.2932 317.115 12.8429C317.115 13.3926 316.718 13.8386 316.23 13.8386V13.8386ZM320.409 13.8386C319.92 13.8386 319.524 13.3933 319.524 12.8429C319.524 12.2932 319.92 11.8472 320.409 11.8472C320.897 11.8472 321.294 12.2932 321.294 12.8429C321.294 13.3926 320.897 13.8386 320.409 13.8386ZM324.588 13.8386C324.099 13.8386 323.703 13.3933 323.703 12.8429C323.703 12.2932 324.099 11.8472 324.588 11.8472C325.076 11.8472 325.473 12.2932 325.473 12.8429C325.473 13.3926 325.076 13.8386 324.588 13.8386Z" fill="#292F33"/>
<path d="M324.922 8.11971C324.032 8.11971 323.262 8.65602 322.836 9.43709C322.414 8.67274 321.641 8.11971 320.743 8.11971C319.853 8.11971 319.083 8.65602 318.658 9.43709C318.235 8.67274 317.462 8.11971 316.564 8.11971C315.674 8.11971 314.904 8.65602 314.479 9.43709C314.057 8.67274 313.283 8.11971 312.385 8.11971C311.038 8.11971 309.947 9.33611 309.947 10.7979C309.947 12.0378 310.675 13.0522 311.737 13.4234C312.265 13.6073 312.589 13.1244 312.544 12.7372C312.505 12.4163 312.283 12.2069 312.036 12.0565C311.698 11.8512 311.34 11.3824 311.34 10.8013C311.34 10.063 311.807 9.40031 312.384 9.40031C312.962 9.40031 313.429 10.0055 313.429 10.6742H314.137C314.135 10.7157 314.125 10.7551 314.125 10.7973C314.125 12.0371 314.853 13.0515 315.915 13.4227C316.443 13.6066 316.767 13.1238 316.722 12.7366C316.684 12.4163 316.462 12.2069 316.214 12.0565C315.876 11.8512 315.518 11.3824 315.518 10.8013C315.518 10.063 315.985 9.40031 316.562 9.40031C317.14 9.40031 317.609 10.0062 317.609 10.6749H318.316C318.314 10.7164 318.305 10.7558 318.305 10.7979C318.305 12.0378 319.033 13.0522 320.094 13.4234C320.623 13.6073 320.947 13.1244 320.902 12.7372C320.863 12.4169 320.641 12.2076 320.394 12.0572C320.056 11.8519 319.697 11.3831 319.697 10.802C319.697 10.0637 320.165 9.40098 320.742 9.40098C321.32 9.40098 321.788 10.0062 321.788 10.6749H322.495C322.493 10.7164 322.484 10.7558 322.484 10.7979C322.484 12.0378 323.212 13.0522 324.273 13.4234C324.802 13.6073 325.126 13.1244 325.081 12.7372C325.042 12.4169 324.82 12.2076 324.573 12.0572C324.235 11.8519 323.876 11.3831 323.876 10.802C323.876 10.0637 324.344 9.40098 324.921 9.40098C325.498 9.40098 325.966 10.0062 325.966 10.6749H327.357C327.342 9.33745 326.259 8.11971 324.922 8.11971Z" fill="#66757F"/>
<path d="M313.558 18.0309H316.344V20.7058H313.558V18.0309ZM317.041 18.0309H319.827V20.7058H317.041V18.0309ZM320.523 18.0309H323.309V20.7058H320.523V18.0309ZM324.005 18.0309H326.791V20.7058H324.005V18.0309ZM310.076 21.3745H312.862V24.0494H310.076V21.3745ZM313.558 21.3745H316.344V24.0494H313.558V21.3745ZM317.041 21.3745H319.827V24.0494H317.041V21.3745ZM320.523 21.3745H323.309V24.0494H320.523V21.3745ZM324.005 21.3745H326.791V24.0494H324.005V21.3745ZM310.076 24.7181H312.862V27.393H310.076V24.7181ZM313.558 24.7181H316.344V27.393H313.558V24.7181ZM317.041 24.7181H319.827V27.393H317.041V24.7181ZM320.523 24.7181H323.309V27.393H320.523V24.7181ZM324.005 24.7181H326.791V27.393H324.005V24.7181ZM310.076 28.0617H312.862V30.7366H310.076V28.0617ZM313.558 28.0617H316.344V30.7366H313.558V28.0617ZM317.041 28.0617H319.827V30.7366H317.041V28.0617Z" fill="white"/>
</g>
<defs>
<clipPath id="clip0_340_1546">
<rect width="25.0735" height="24.0741" fill="white" transform="translate(305.897 8)"/>
</clipPath>
</defs>
</svg>
