<svg width="73" height="68" viewBox="0 0 73 68" fill="none" xmlns="http://www.w3.org/2000/svg">
<path fill-rule="evenodd" clip-rule="evenodd" d="M33.3874 5.97465C25.0348 2.67494 16.6431 4.10224 12.289 15.1238C7.93497 26.1453 27.134 56.95 27.134 56.95C27.134 56.95 62.2026 47.5837 66.5566 36.5622C70.9107 25.5407 65.7601 18.7635 57.4075 15.4638C52.5131 13.5302 47.2432 14.1362 43.0545 16.65C41.7148 11.9522 38.2819 7.9082 33.3874 5.97465Z" fill="#E43535"/>
<mask id="path-2-outside-1_340_2646" maskUnits="userSpaceOnUse" x="3.03217" y="6.00212" width="71.6254" height="58.1221" fill="black">
<rect fill="white" x="3.03217" y="6.00212" width="71.6254" height="58.1221"/>
<path fill-rule="evenodd" clip-rule="evenodd" d="M12.0838 29.3185L23.0989 33.67L29.1039 26.1054L27.038 40.3194L39.4618 19.1788L31.9934 48.7965L45.3308 26.9104L42.2447 41.7295L61.8646 49.4804"/>
</mask>
<path d="M13.4038 25.9769C11.5584 25.2479 9.47128 26.1529 8.74222 27.9984C8.01316 29.8439 8.9182 31.931 10.7637 32.66L13.4038 25.9769ZM23.0989 33.67L21.7788 37.0116C23.2504 37.5929 24.9291 37.1431 25.9129 35.9038L23.0989 33.67ZM29.1039 26.1054L32.6594 26.6222C32.893 25.0149 32.0194 23.4508 30.5283 22.807C29.0373 22.1631 27.2997 22.5995 26.2899 23.8716L29.1039 26.1054ZM27.038 40.3194L23.4825 39.8026C23.2354 41.5027 24.2264 43.1398 25.8472 43.7092C27.468 44.2785 29.2651 43.6208 30.1355 42.1398L27.038 40.3194ZM39.4618 19.1788L42.9456 20.0573C43.3827 18.3239 42.4789 16.5329 40.8249 15.8546C39.171 15.1764 37.27 15.8172 36.3642 17.3584L39.4618 19.1788ZM31.9934 48.7965L28.5096 47.918C28.0752 49.6408 28.9653 51.4225 30.6037 52.1097C32.2422 52.7969 34.1369 52.1834 35.0615 50.6662L31.9934 48.7965ZM45.3308 26.9104L48.8482 27.643C49.2047 25.9313 48.2772 24.2115 46.6512 23.569C45.0251 22.9265 43.1726 23.5478 42.2628 25.0408L45.3308 26.9104ZM42.2447 41.7295L38.7273 40.997C38.3708 42.7088 39.2984 44.4286 40.9246 45.071L42.2447 41.7295ZM60.5446 52.8219C62.39 53.551 64.4771 52.6459 65.2062 50.8004C65.9353 48.955 65.0302 46.8679 63.1847 46.1388L60.5446 52.8219ZM10.7637 32.66L21.7788 37.0116L24.419 30.3285L13.4038 25.9769L10.7637 32.66ZM25.9129 35.9038L31.9179 28.3392L26.2899 23.8716L20.2849 31.4362L25.9129 35.9038ZM25.5484 25.5886L23.4825 39.8026L30.5935 40.8362L32.6594 26.6222L25.5484 25.5886ZM30.1355 42.1398L42.5593 20.9992L36.3642 17.3584L23.9404 38.499L30.1355 42.1398ZM35.978 18.3003L28.5096 47.918L35.4772 49.675L42.9456 20.0573L35.978 18.3003ZM35.0615 50.6662L48.3989 28.7801L42.2628 25.0408L28.9254 46.9268L35.0615 50.6662ZM41.8135 26.1779L38.7273 40.997L45.7621 42.462L48.8482 27.643L41.8135 26.1779ZM40.9246 45.071L60.5446 52.8219L63.1847 46.1388L43.5648 38.3879L40.9246 45.071Z" fill="white" mask="url(#path-2-outside-1_340_2646)"/>
</svg>
