<svg width="89" height="89" viewBox="0 0 89 89" fill="none" xmlns="http://www.w3.org/2000/svg">
<path d="M44.5 88C68.5244 88 88 68.5244 88 44.5C88 20.4756 68.5244 1 44.5 1C20.4756 1 1 20.4756 1 44.5C1 68.5244 20.4756 88 44.5 88Z" stroke="#1DA4D7" stroke-width="2"/>
<path d="M51.3403 48.547H38.957C32.9246 48.547 28.0342 53.4372 28.0342 59.4699V68.9903H62.2629V59.4699C62.2629 53.4372 57.3727 48.547 51.3403 48.547Z" fill="#CECECE"/>
<path d="M42.2703 48.547H38.957C32.9246 48.547 28.0342 53.4372 28.0342 59.4699V68.9903H31.3474V59.4699C31.3474 53.4372 36.2377 48.547 42.2703 48.547Z" fill="#AFAFAF"/>
<path d="M45.6662 51.4672H44.6313C42.7911 51.4672 41.2993 49.9754 41.2993 48.1352V42.207C41.2993 40.3668 42.7911 38.875 44.6313 38.875H45.6662C47.5063 38.875 48.9982 40.3668 48.9982 42.207V48.1352C48.9982 49.9754 47.5063 51.4672 45.6662 51.4672Z" fill="#F8AF23"/>
<path d="M41.2993 42.207V48.1352C41.2993 49.6862 42.3606 50.9858 43.7955 51.3572V38.9847C42.3608 39.3561 41.2993 40.6559 41.2993 42.207Z" fill="#F87023"/>
<path d="M54.6792 44.4703H35.6166C33.1213 44.4703 31.0986 42.4476 31.0986 39.9523V27.9359C31.0986 25.4406 33.1213 23.4179 35.6166 23.4179H54.6795C57.1747 23.4179 59.1974 25.4406 59.1974 27.9359V39.9523C59.1972 42.4473 57.1745 44.4703 54.6792 44.4703Z" fill="#CECECE"/>
<path d="M34.4117 39.9523V27.9359C34.4117 25.4406 36.4343 23.4179 38.9296 23.4179H35.6166C33.1213 23.4179 31.0986 25.4406 31.0986 27.9359V39.9523C31.0986 42.4476 33.1213 44.4703 35.6166 44.4703H38.9298C36.4346 44.4703 34.4117 42.4473 34.4117 39.9523Z" fill="#AFAFAF"/>
<path d="M29.9387 38.2067H31.099V29.6813H29.9387C28.4295 29.6813 27.2061 30.9048 27.2061 32.414V35.474C27.2063 36.9833 28.4295 38.2067 29.9387 38.2067Z" fill="#AFAFAF"/>
<path d="M60.358 38.2067H59.1978V29.6813H60.358C61.8672 29.6813 63.0907 30.9048 63.0907 32.414V35.474C63.0904 36.9833 61.8672 38.2067 60.358 38.2067Z" fill="#E2E2E2"/>
<path d="M50.4878 35.9764H39.8084C37.989 35.9764 36.5142 34.5015 36.5142 32.6821V31.659C36.5142 29.8396 37.989 28.3647 39.8084 28.3647H50.4878C52.3072 28.3647 53.782 29.8396 53.782 31.659V32.6821C53.782 34.5015 52.3072 35.9764 50.4878 35.9764Z" fill="#F46275"/>
<path d="M41.4665 33.3562C42.1214 33.3562 42.6522 32.8253 42.6522 32.1705C42.6522 31.5156 42.1214 30.9847 41.4665 30.9847C40.8116 30.9847 40.2808 31.5156 40.2808 32.1705C40.2808 32.8253 40.8116 33.3562 41.4665 33.3562Z" fill="#3F3679"/>
<path d="M48.8303 33.3562C49.4851 33.3562 50.016 32.8253 50.016 32.1705C50.016 31.5156 49.4851 30.9847 48.8303 30.9847C48.1754 30.9847 47.6445 31.5156 47.6445 32.1705C47.6445 32.8253 48.1754 33.3562 48.8303 33.3562Z" fill="#3F3679"/>
<path d="M50.044 41.4569H40.2545C39.6308 41.4569 39.125 40.9512 39.125 40.3275V39.5418C39.125 38.9181 39.6308 38.4123 40.2545 38.4123H50.044C50.6677 38.4123 51.1735 38.9181 51.1735 39.5418V40.3275C51.1735 40.9514 50.6677 41.4569 50.044 41.4569Z" fill="#707070"/>
<path d="M45.9288 19.3391H44.3694C41.3525 19.3391 38.5435 20.8765 36.9175 23.4179H53.3809C51.7547 20.8765 48.9457 19.3391 45.9288 19.3391Z" fill="#63BCE7"/>
<path d="M46.8043 19.3869C46.5142 19.358 46.2223 19.3391 45.9273 19.3391H44.3679C41.3511 19.3391 38.542 20.8765 36.916 23.4179H40.2293C41.6962 21.125 44.1274 19.6535 46.8043 19.3869Z" fill="#6377E7"/>
<path d="M27.2064 25.9723C27.9991 25.9723 28.6417 25.3296 28.6417 24.5369C28.6417 23.7442 27.9991 23.1016 27.2064 23.1016C26.4136 23.1016 25.771 23.7442 25.771 24.5369C25.771 25.3296 26.4136 25.9723 27.2064 25.9723Z" fill="#3F3679"/>
<path d="M63.0901 25.9723C63.8829 25.9723 64.5255 25.3296 64.5255 24.5369C64.5255 23.7442 63.8829 23.1016 63.0901 23.1016C62.2974 23.1016 61.6548 23.7442 61.6548 24.5369C61.6548 25.3296 62.2974 25.9723 63.0901 25.9723Z" fill="#3F3679"/>
<path d="M56.224 66.8226H34.0727C33.3058 66.8226 32.6841 66.2009 32.6841 65.4338V53.0107C32.6841 52.2438 33.3058 51.6221 34.0727 51.6221H56.224C56.991 51.6221 57.6128 52.2438 57.6128 53.0107V65.4338C57.6128 66.2009 56.9912 66.8226 56.224 66.8226Z" fill="#707070"/>
<path d="M58.7678 68.9903H31.5299L30.395 67.6342C30.1257 67.3126 30.3545 66.8228 30.774 66.8228H59.5236C59.9431 66.8228 60.172 67.3126 59.9027 67.6342L58.7678 68.9903Z" fill="#707070"/>
<path d="M45.1482 60.4596C45.8313 60.4596 46.3852 59.9057 46.3852 59.2226C46.3852 58.5394 45.8313 57.9855 45.1482 57.9855C44.465 57.9855 43.9111 58.5394 43.9111 59.2226C43.9111 59.9057 44.465 60.4596 45.1482 60.4596Z" fill="#CECECE"/>
<path d="M63.7915 46.8892V57.279H60.793L57.6123 60.4596L54.4317 57.279H51.4331V46.8892H63.7915Z" fill="#63BCE7"/>
<path d="M63.7925 46.8892V57.279H60.7939L60.4795 57.5934V46.8892H63.7925Z" fill="#63E2E7"/>
<path d="M61.0382 53.1742C61.6404 53.1742 62.1286 52.686 62.1286 52.0838C62.1286 51.4816 61.6404 50.9934 61.0382 50.9934C60.4359 50.9934 59.9478 51.4816 59.9478 52.0838C59.9478 52.686 60.4359 53.1742 61.0382 53.1742Z" fill="#F8AF23"/>
<path d="M57.5777 53.1742C58.1799 53.1742 58.6681 52.686 58.6681 52.0838C58.6681 51.4816 58.1799 50.9934 57.5777 50.9934C56.9755 50.9934 56.4873 51.4816 56.4873 52.0838C56.4873 52.686 56.9755 53.1742 57.5777 53.1742Z" fill="#F8AF23"/>
<path d="M54.1173 53.1742C54.7195 53.1742 55.2077 52.686 55.2077 52.0838C55.2077 51.4816 54.7195 50.9934 54.1173 50.9934C53.515 50.9934 53.0269 51.4816 53.0269 52.0838C53.0269 52.686 53.515 53.1742 54.1173 53.1742Z" fill="#F8AF23"/>
<path d="M22.4057 71.1302H18.3388C18.1516 71.1302 18 71.2818 18 71.4691C18 71.6564 18.1516 71.8079 18.3388 71.8079H22.4057C22.593 71.8079 22.7445 71.6564 22.7445 71.4691C22.7445 71.2818 22.593 71.1302 22.4057 71.1302Z" fill="#3F3679"/>
<path d="M71.9579 71.1302H67.8911C67.7038 71.1302 67.5522 71.2818 67.5522 71.4691C67.5522 71.6564 67.7038 71.8079 67.8911 71.8079H71.9579C72.1452 71.8079 72.2968 71.6564 72.2968 71.4691C72.2968 71.2818 72.1452 71.1302 71.9579 71.1302Z" fill="#3F3679"/>
<path d="M65.5875 71.1302H24.7095C24.5222 71.1302 24.3706 71.2818 24.3706 71.4691C24.3706 71.6564 24.5222 71.8079 24.7095 71.8079H65.5878C65.775 71.8079 65.9266 71.6564 65.9266 71.4691C65.9266 71.2818 65.7748 71.1302 65.5875 71.1302Z" fill="#3F3679"/>
<path d="M18.3388 69.3292H28.0339H31.5295H58.7672H62.2627H71.9578C72.1451 69.3292 72.2966 69.1776 72.2966 68.9904C72.2966 68.8031 72.1451 68.6515 71.9578 68.6515H62.6015V59.4699C62.6015 58.8489 62.548 58.227 62.4473 57.6177H63.792C63.9793 57.6177 64.1309 57.4662 64.1309 57.2789V46.8892C64.1309 46.7019 63.9793 46.5503 63.792 46.5503H51.4334C51.2461 46.5503 51.0945 46.7019 51.0945 46.8892V48.2082H49.333C49.3334 48.1836 49.3366 48.1598 49.3366 48.1352V44.8091H54.6798C57.3578 44.8091 59.5366 42.6303 59.5366 39.9523V38.5456H60.3579C62.0515 38.5456 63.4295 37.1676 63.4295 35.4741V32.4141C63.4295 30.7205 62.0515 29.3425 60.3579 29.3425H59.879L63.3608 24.7414C63.4737 24.5921 63.4444 24.3795 63.2951 24.2666C63.146 24.1539 62.9334 24.1832 62.8202 24.3323L59.5363 28.6718V27.9356C59.5363 25.2576 57.3575 23.0788 54.6795 23.0788H53.5584C51.8488 20.5228 49.0126 19 45.928 19H44.3686C41.284 19 38.4476 20.5228 36.7382 23.0788H35.6171C32.9391 23.0788 30.7603 25.2576 30.7603 27.9356V28.6718L27.4764 24.3326C27.3635 24.1832 27.1509 24.1541 27.0016 24.2668C26.8523 24.3798 26.8229 24.5923 26.9359 24.7417L30.4176 29.3425H29.9387C28.2452 29.3425 26.8672 30.7205 26.8672 32.4141V35.4741C26.8672 37.1676 28.2452 38.5456 29.9387 38.5456H30.7601V39.9523C30.7601 42.6303 32.9389 44.8091 35.6169 44.8091H40.9601V48.1352C40.9601 48.1598 40.9632 48.1838 40.9637 48.2082H38.9566C32.7469 48.2082 27.6949 53.2602 27.6949 59.4699V68.6515H18.3388C18.1516 68.6515 18 68.8031 18 68.9904C18 69.1776 18.1516 69.3292 18.3388 69.3292ZM31.6878 68.6515L30.6544 67.4167C30.597 67.3483 30.6203 67.278 30.6327 67.2512C30.6453 67.2241 30.6842 67.1615 30.7736 67.1615H34.0727H56.224H59.523C59.6125 67.1615 59.6513 67.2241 59.664 67.2512C59.6766 67.278 59.6997 67.3483 59.6423 67.4165L58.6088 68.6513L31.6878 68.6515ZM33.0229 65.4338V53.0108C33.0229 52.4318 33.4939 51.961 34.0729 51.961H51.0947V57.2789C51.0947 57.4662 51.2463 57.6177 51.4336 57.6177H54.2919L57.2742 60.5998V65.4338C57.2742 66.0128 56.8032 66.4836 56.2242 66.4836H34.0729C33.4939 66.4838 33.0229 66.0128 33.0229 65.4338ZM61.9241 59.4699V68.6515H59.4927L60.1621 67.8516C60.3719 67.6009 60.4164 67.2609 60.278 66.9645C60.1395 66.6679 59.8501 66.484 59.523 66.484H57.5927C57.8168 66.1926 57.9514 65.8294 57.9514 65.4343V60.6003L60.9335 57.6182H61.761C61.8687 58.2254 61.9241 58.8482 61.9241 59.4699ZM51.7722 47.228H63.4532V56.94H60.7935C60.7036 56.94 60.6175 56.9757 60.5538 57.0392L57.6126 59.9804L54.6714 57.0392C54.6079 56.9757 54.5216 56.94 54.4317 56.94H51.772V47.228H51.7722ZM51.0945 48.8859V51.2833H47.5439C48.4093 50.7651 49.0465 49.9038 49.2589 48.8859H51.0945ZM62.7518 32.4141V35.4741C62.7518 36.794 61.6781 37.8679 60.3579 37.8679H59.5366V30.0202H60.3579C61.6781 30.0202 62.7518 31.0939 62.7518 32.4141ZM44.3686 19.6779H45.928C48.6311 19.6779 51.1309 20.9382 52.7332 23.079H37.5635C39.166 20.9382 41.6655 19.6779 44.3686 19.6779ZM29.9387 37.8679C28.6188 37.8679 27.5449 36.7942 27.5449 35.4741V32.4141C27.5449 31.0941 28.6186 30.0202 29.9387 30.0202H30.7601V37.8679H29.9387ZM31.438 39.9523V38.2068V29.6814V27.9359C31.438 25.6315 33.3127 23.7567 35.6171 23.7567H36.9167H53.3802H54.6798C56.9841 23.7567 58.8589 25.6315 58.8589 27.9359V29.6814V38.2068V39.9523C58.8589 42.2567 56.9841 44.1314 54.6798 44.1314H35.6171C33.3125 44.1314 31.438 42.2567 31.438 39.9523ZM48.6591 44.8091V48.1352C48.6591 49.7856 47.3164 51.1284 45.666 51.1284H44.6311C42.9807 51.1284 41.638 49.7856 41.638 48.1352V44.8091H48.6591ZM28.3728 59.4699C28.3728 53.634 33.1207 48.8859 38.9568 48.8859H41.0378C41.2501 49.9038 41.8874 50.7651 42.7528 51.2833H34.0729C33.1203 51.2833 32.3452 52.0584 32.3452 53.0108V65.4338C32.3452 65.8289 32.4801 66.1924 32.7039 66.4836H30.7736C30.4465 66.4836 30.1572 66.6677 30.0187 66.964C29.8802 67.2604 29.9247 67.6004 30.1346 67.8514L30.8039 68.6513H28.3728V59.4699Z" fill="#3F3679"/>
<path d="M50.4877 28.0257H39.8084C37.8049 28.0257 36.1753 29.6556 36.1753 31.6588V32.6821C36.1753 34.6854 37.8051 36.3153 39.8084 36.3153H50.4877C52.4912 36.3153 54.1209 34.6854 54.1209 32.6821V31.6588C54.1209 29.6556 52.491 28.0257 50.4877 28.0257ZM53.4432 32.6821C53.4432 34.3118 52.1174 35.6376 50.4877 35.6376H39.8084C38.1788 35.6376 36.853 34.3118 36.853 32.6821V31.6588C36.853 30.0292 38.1788 28.7034 39.8084 28.7034H50.4877C52.1174 28.7034 53.4432 30.0292 53.4432 31.6588V32.6821Z" fill="#3F3679"/>
<path d="M50.0435 38.0735H40.254C39.4444 38.0735 38.7856 38.7322 38.7856 39.5418V40.3277C38.7856 41.1373 39.4444 41.7961 40.254 41.7961H50.0435C50.8531 41.7961 51.5118 41.1373 51.5118 40.3277V39.5418C51.5118 38.7322 50.8531 38.0735 50.0435 38.0735ZM50.8341 40.3275C50.8341 40.7635 50.4795 41.1181 50.0435 41.1181H47.4014V40.0433C47.4014 39.856 47.2498 39.7045 47.0626 39.7045C46.8753 39.7045 46.7237 39.856 46.7237 40.0433V41.1181H43.5738V40.0433C43.5738 39.856 43.4222 39.7045 43.2349 39.7045C43.0477 39.7045 42.8961 39.856 42.8961 40.0433V41.1181H40.254C39.818 41.1181 39.4633 40.7635 39.4633 40.3275V39.5416C39.4633 39.1056 39.818 38.751 40.254 38.751H41.0909V39.7605C41.0909 39.9478 41.2425 40.0993 41.4298 40.0993C41.6171 40.0993 41.7686 39.9478 41.7686 39.7605V38.751H44.8099V39.7605C44.8099 39.9478 44.9615 40.0993 45.1487 40.0993C45.336 40.0993 45.4876 39.9478 45.4876 39.7605V38.751H48.5289V39.7605C48.5289 39.9478 48.6804 40.0993 48.8677 40.0993C49.055 40.0993 49.2065 39.9478 49.2065 39.7605V38.751H50.0435C50.4795 38.751 50.8341 39.1056 50.8341 39.5416V40.3275Z" fill="#3F3679"/>
<path d="M45.1484 57.6464C44.2793 57.6464 43.5723 58.3535 43.5723 59.2225C43.5723 60.0915 44.2793 60.7984 45.1484 60.7984C46.0174 60.7984 46.7244 60.0915 46.7244 59.2225C46.7244 58.3535 46.0174 57.6464 45.1484 57.6464ZM45.1484 60.1207C44.653 60.1207 44.25 59.7177 44.25 59.2225C44.25 58.7271 44.653 58.3241 45.1484 58.3241C45.6438 58.3241 46.0468 58.7271 46.0468 59.2225C46.0468 59.7177 45.6438 60.1207 45.1484 60.1207Z" fill="#3F3679"/>
<path d="M61.0386 53.5133C61.8268 53.5133 62.4679 52.8722 62.4679 52.0839C62.4679 51.2957 61.8268 50.6546 61.0386 50.6546C60.2505 50.6546 59.6094 51.2957 59.6094 52.0839C59.6094 52.8722 60.2507 53.5133 61.0386 53.5133ZM61.0386 51.3323C61.4529 51.3323 61.7902 51.6696 61.7902 52.0839C61.7902 52.4984 61.4529 52.8356 61.0386 52.8356C60.6243 52.8356 60.2871 52.4984 60.2871 52.0839C60.2871 51.6696 60.6243 51.3323 61.0386 51.3323Z" fill="#3F3679"/>
<path d="M57.5772 53.5133C58.3654 53.5133 59.0065 52.8722 59.0065 52.0839C59.0065 51.2957 58.3654 50.6546 57.5772 50.6546C56.789 50.6546 56.1479 51.2957 56.1479 52.0839C56.1479 52.8722 56.7893 53.5133 57.5772 53.5133ZM57.5772 51.3323C57.9915 51.3323 58.3288 51.6696 58.3288 52.0839C58.3288 52.4984 57.9915 52.8356 57.5772 52.8356C57.1629 52.8356 56.8256 52.4984 56.8256 52.0839C56.8256 51.6696 57.1629 51.3323 57.5772 51.3323Z" fill="#3F3679"/>
<path d="M55.5465 52.0839C55.5465 51.2957 54.9054 50.6546 54.1172 50.6546C53.3291 50.6546 52.688 51.2957 52.688 52.0839C52.688 52.872 53.3291 53.5133 54.1172 53.5133C54.9054 53.5133 55.5465 52.8722 55.5465 52.0839ZM54.1172 52.8356C53.7029 52.8356 53.3657 52.4984 53.3657 52.0839C53.3657 51.6696 53.7029 51.3323 54.1172 51.3323C54.5315 51.3323 54.8688 51.6696 54.8688 52.0839C54.8688 52.4984 54.5315 52.8356 54.1172 52.8356Z" fill="#3F3679"/>
</svg>
