<svg width="109" height="17" viewBox="0 0 109 17" fill="none" xmlns="http://www.w3.org/2000/svg">
<path d="M8.5 0.205872L10.8511 4.9698L16.1085 5.73374L12.3042 9.44194L13.2023 14.678L8.5 12.2059L3.79772 14.678L4.69577 9.44194L0.891548 5.73374L6.14886 4.9698L8.5 0.205872Z" fill="#FFB61D"/>
<path d="M31.5 0.205872L33.8511 4.9698L39.1085 5.73374L35.3042 9.44194L36.2023 14.678L31.5 12.2059L26.7977 14.678L27.6958 9.44194L23.8915 5.73374L29.1489 4.9698L31.5 0.205872Z" fill="#FFB61D"/>
<path d="M54.5 0.205872L56.8511 4.9698L62.1085 5.73374L58.3042 9.44194L59.2023 14.678L54.5 12.2059L49.7977 14.678L50.6958 9.44194L46.8915 5.73374L52.1489 4.9698L54.5 0.205872Z" fill="#FFB61D"/>
<path d="M77.5 0.205872L79.8511 4.9698L85.1085 5.73374L81.3042 9.44194L82.2023 14.678L77.5 12.2059L72.7977 14.678L73.6958 9.44194L69.8915 5.73374L75.1489 4.9698L77.5 0.205872Z" fill="#FFB61D"/>
<path d="M100.5 0.205872L102.851 4.9698L108.108 5.73374L104.304 9.44194L105.202 14.678L100.5 12.2059L95.7977 14.678L96.6958 9.44194L92.8915 5.73374L98.1489 4.9698L100.5 0.205872Z" fill="#FFB61D"/>
</svg>
