<svg width="354" height="183" viewBox="0 0 354 183" fill="none" xmlns="http://www.w3.org/2000/svg">
<g filter="url(#filter0_d_340_2453)">
<rect x="4.5" y="2" width="345" height="175" rx="5" fill="white"/>
<rect x="5" y="2.5" width="344" height="174" rx="4.5" stroke="#D9D9D9"/>
</g>
<path d="M38.5 67H54.5V63H38.5V67ZM38.5 61H54.5V57H38.5V61ZM46.5 53.6C48.7 51.6 50.5833 49.8247 52.15 48.274C53.7167 46.7233 54.5 45.0987 54.5 43.4C54.5 42.2 54.0667 41.1667 53.2 40.3C52.3333 39.4333 51.3 39 50.1 39C49.4 39 48.7247 39.142 48.074 39.426C47.4233 39.71 46.8987 40.1013 46.5 40.6C46.1 40.1 45.5747 39.7087 44.924 39.426C44.2733 39.1433 43.5987 39.0013 42.9 39C41.7 39 40.6667 39.4333 39.8 40.3C38.9333 41.1667 38.5 42.2 38.5 43.4C38.5 45.1 39.258 46.7 40.774 48.2C42.29 49.7 44.1987 51.5 46.5 53.6ZM58.5 73H34.5C33.4 73 32.458 72.608 31.674 71.824C30.89 71.04 30.4987 70.0987 30.5 69V37C30.5 35.9 30.892 34.958 31.676 34.174C32.46 33.39 33.4013 32.9987 34.5 33H58.5C59.6 33 60.542 33.392 61.326 34.176C62.11 34.96 62.5013 35.9013 62.5 37V69C62.5 70.1 62.108 71.042 61.324 71.826C60.54 72.61 59.5987 73.0013 58.5 73ZM34.5 69H58.5V37H34.5V69Z" fill="#1DA4D7"/>
<path fill-rule="evenodd" clip-rule="evenodd" d="M36.933 131.442C36.3297 131.812 35.8764 132.383 35.6532 133.054C35.4301 133.725 35.4514 134.454 35.7134 135.111C35.9755 135.768 36.4613 136.312 37.0852 136.646C37.7091 136.979 38.4309 137.082 39.123 136.935C39.8151 136.788 40.433 136.401 40.8675 135.843C41.3021 135.284 41.5253 134.59 41.4978 133.883C41.4703 133.177 41.1938 132.502 40.7172 131.979C40.2405 131.456 39.5944 131.119 38.893 131.026C38.8555 130.892 38.8212 130.757 38.79 130.621C38.6533 130.003 38.5465 129.379 38.47 128.751C38.3874 128.116 38.3406 127.477 38.33 126.837C38.3279 126.661 38.3329 126.485 38.345 126.31C38.729 126.2 39.115 126.1 39.5 126.013C39.941 125.913 40.203 126.433 40.414 126.855L40.5 127.024H52.249C52.478 126.59 52.997 125.898 53.5 126.013C54.036 126.135 54.575 126.28 55.109 126.446L55.106 126.447C55.104 126.445 55.104 126.445 55.106 126.449C55.11 126.463 55.132 126.529 55.154 126.669C55.179 126.831 55.196 127.041 55.204 127.294C55.218 127.798 55.189 128.411 55.13 129.029C55.07 129.646 54.981 130.243 54.881 130.714C54.859 130.819 54.837 130.914 54.815 131H53.5C53.3143 131 53.1324 131.052 52.9745 131.15C52.8166 131.247 52.689 131.387 52.606 131.553L51.606 133.553C51.5364 133.692 51.5001 133.845 51.5 134V136C51.5 136.265 51.6054 136.52 51.7929 136.707C51.9804 136.895 52.2348 137 52.5 137H54.5V135H53.5V134.236L54.118 133H56.882L57.5 134.236V135H56.5V137H58.5C58.7652 137 59.0196 136.895 59.2071 136.707C59.3946 136.52 59.5 136.265 59.5 136V134C59.4999 133.845 59.4636 133.692 59.394 133.553L58.394 131.553C58.311 131.387 58.1834 131.247 58.0255 131.15C57.8676 131.052 57.6857 131 57.5 131H56.864C56.971 130.467 57.06 129.845 57.12 129.221C57.186 128.547 57.22 127.848 57.203 127.238L57.202 127.21C61.19 128.895 64.5 131.666 64.5 134.57V140H28.5V134.57C28.5 131.538 32.11 128.65 36.331 126.993C36.342 127.615 36.401 128.318 36.486 128.999C36.578 129.734 36.703 130.465 36.841 131.067C36.871 131.196 36.901 131.321 36.933 131.442ZM38.5 135.015C39.038 135.015 39.5 134.575 39.5 134C39.5 133.426 39.038 132.985 38.5 132.985C37.962 132.985 37.5 133.425 37.5 134C37.5 134.574 37.962 135.015 38.5 135.015ZM46.5 122C48.6217 122 50.6566 121.157 52.1569 119.657C53.6571 118.157 54.5 116.122 54.5 114C54.5 111.878 53.6571 109.843 52.1569 108.343C50.6566 106.843 48.6217 106 46.5 106C44.3783 106 42.3434 106.843 40.8431 108.343C39.3429 109.843 38.5 111.878 38.5 114C38.5 116.122 39.3429 118.157 40.8431 119.657C42.3434 121.157 44.3783 122 46.5 122ZM46.5 124C52.023 124 56.5 119.523 56.5 114C56.5 108.477 52.023 104 46.5 104C40.977 104 36.5 108.477 36.5 114C36.5 119.523 40.977 124 46.5 124Z" fill="#1DA4D7"/>
<defs>
<filter id="filter0_d_340_2453" x="0.5" y="0" width="353" height="183" filterUnits="userSpaceOnUse" color-interpolation-filters="sRGB">
<feFlood flood-opacity="0" result="BackgroundImageFix"/>
<feColorMatrix in="SourceAlpha" type="matrix" values="0 0 0 0 0 0 0 0 0 0 0 0 0 0 0 0 0 0 127 0" result="hardAlpha"/>
<feOffset dy="2"/>
<feGaussianBlur stdDeviation="2"/>
<feComposite in2="hardAlpha" operator="out"/>
<feColorMatrix type="matrix" values="0 0 0 0 0 0 0 0 0 0 0 0 0 0 0 0 0 0 0.25 0"/>
<feBlend mode="normal" in2="BackgroundImageFix" result="effect1_dropShadow_340_2453"/>
<feBlend mode="normal" in="SourceGraphic" in2="effect1_dropShadow_340_2453" result="shape"/>
</filter>
</defs>
</svg>
