<svg width="109" height="17" viewBox="0 0 109 17" fill="none" xmlns="http://www.w3.org/2000/svg">
<path d="M8.5 0.205811L10.8511 4.96974L16.1085 5.73367L12.3042 9.44188L13.2023 14.6779L8.5 12.2058L3.79772 14.6779L4.69577 9.44188L0.891548 5.73367L6.14886 4.96974L8.5 0.205811Z" fill="#FFB61D"/>
<path d="M31.5 0.205811L33.8511 4.96974L39.1085 5.73367L35.3042 9.44188L36.2023 14.6779L31.5 12.2058L26.7977 14.6779L27.6958 9.44188L23.8915 5.73367L29.1489 4.96974L31.5 0.205811Z" fill="#FFB61D"/>
<path d="M54.5 0.205811L56.8511 4.96974L62.1085 5.73367L58.3042 9.44188L59.2023 14.6779L54.5 12.2058L49.7977 14.6779L50.6958 9.44188L46.8915 5.73367L52.1489 4.96974L54.5 0.205811Z" fill="#FFB61D"/>
<path d="M77.5 0.205811L79.8511 4.96974L85.1085 5.73367L81.3042 9.44188L82.2023 14.6779L77.5 12.2058L72.7977 14.6779L73.6958 9.44188L69.8915 5.73367L75.1489 4.96974L77.5 0.205811Z" fill="#FFB61D"/>
<path d="M100.5 0.205811L102.851 4.96974L108.108 5.73367L104.304 9.44188L105.202 14.6779L100.5 12.2058L95.7977 14.6779L96.6958 9.44188L92.8915 5.73367L98.1489 4.96974L100.5 0.205811Z" fill="#FFB61D"/>
</svg>
