<svg width="36" height="28" viewBox="0 0 36 28" fill="none" xmlns="http://www.w3.org/2000/svg">
<path d="M18 18.1709C17.8 18.1709 17.6125 18.1468 17.4375 18.0986C17.2625 18.0504 17.1 17.9675 16.95 17.8501L11.55 13.6501C11.275 13.4362 11.1375 13.164 11.1375 12.8334C11.1375 12.5029 11.275 12.2306 11.55 12.0168C11.825 11.8029 12.1815 11.6913 12.6195 11.6819C13.0575 11.6726 13.4135 11.7745 13.6875 11.9876L16.5 14.1751V5.83342C16.5 5.50286 16.644 5.22559 16.932 5.00159C17.22 4.77759 17.576 4.66597 18 4.66675C18.425 4.66675 18.7815 4.77875 19.0695 5.00275C19.3575 5.22675 19.501 5.50364 19.5 5.83342V14.1751L22.3125 11.9876C22.5875 11.7737 22.944 11.6714 23.382 11.6808C23.82 11.6901 24.176 11.8021 24.45 12.0168C24.725 12.2306 24.8625 12.5029 24.8625 12.8334C24.8625 13.164 24.725 13.4362 24.45 13.6501L19.05 17.8501C18.9 17.9668 18.7375 18.0496 18.5625 18.0986C18.3875 18.1476 18.2 18.1717 18 18.1709ZM9 23.3334C8.175 23.3334 7.4685 23.1048 6.8805 22.6474C6.2925 22.1901 5.999 21.641 6 21.0001V18.6668C6 18.3362 6.144 18.0589 6.432 17.8349C6.72 17.6109 7.076 17.4993 7.5 17.5001C7.925 17.5001 8.2815 17.6121 8.5695 17.8361C8.8575 18.0601 9.001 18.337 9 18.6668V21.0001H27V18.6668C27 18.3362 27.144 18.0589 27.432 17.8349C27.72 17.6109 28.076 17.4993 28.5 17.5001C28.925 17.5001 29.2815 17.6121 29.5695 17.8361C29.8575 18.0601 30.001 18.337 30 18.6668V21.0001C30 21.6418 29.706 22.1913 29.118 22.6486C28.53 23.1059 27.824 23.3342 27 23.3334H9Z" fill="#224877"/>
</svg>
