<svg width="142" height="20" viewBox="0 0 142 20" fill="none" xmlns="http://www.w3.org/2000/svg">
<path d="M0.264648 15.55V2.19001H5.00465L7.78465 11.77L10.6046 2.19001H15.3446V15.55H12.2646V5.05001L9.08465 15.55H6.48465L3.32465 5.05001V15.55H0.264648Z" fill="white"/>
<path d="M20.4206 15.79C19.5406 15.79 18.8473 15.63 18.3406 15.31C17.8473 14.9767 17.4939 14.4967 17.2806 13.87C17.0806 13.2433 16.9806 12.4833 16.9806 11.59V5.63001H20.0206V11.17C20.0206 12.0767 20.1539 12.6833 20.4206 12.99C20.7006 13.2833 21.0873 13.43 21.5806 13.43C22.1806 13.43 22.6139 13.23 22.8806 12.83C23.1606 12.43 23.3006 11.77 23.3006 10.85V5.63001H26.3606V15.55H23.7206L23.3006 14.15C23.0073 14.6433 22.6406 15.0433 22.2006 15.35C21.7739 15.6433 21.1806 15.79 20.4206 15.79Z" fill="white"/>
<path d="M31.4268 15.55C30.6135 15.55 29.9668 15.4833 29.4868 15.35C29.0068 15.2033 28.6602 14.93 28.4468 14.53C28.2468 14.1167 28.1468 13.5233 28.1468 12.75V2.19001H31.1868V11.95C31.1868 12.4167 31.2802 12.7233 31.4668 12.87C31.6535 13.0033 32.0002 13.07 32.5068 13.07H33.3668V15.55H31.4268Z" fill="white"/>
<path d="M37.5451 15.79C36.9184 15.79 36.3451 15.67 35.8251 15.43C35.3051 15.19 34.8918 14.8567 34.5851 14.43C34.2784 13.99 34.1251 13.47 34.1251 12.87C34.1251 12.0567 34.4051 11.41 34.9651 10.93C35.5384 10.45 36.3184 10.09 37.3051 9.85001C38.2918 9.61001 39.4251 9.44335 40.7051 9.35002C40.7051 8.64335 40.5918 8.14335 40.3651 7.85001C40.1384 7.55668 39.6984 7.41001 39.0451 7.41001C38.6318 7.41001 38.2651 7.51002 37.9451 7.71001C37.6384 7.89668 37.4318 8.19002 37.3251 8.59002L34.7651 7.67001C35.0984 7.00335 35.6518 6.45001 36.4251 6.01001C37.2118 5.57001 38.1718 5.35001 39.3051 5.35001C40.7184 5.35001 41.8051 5.66335 42.5651 6.29001C43.3251 6.91668 43.7051 7.98335 43.7051 9.49002V11.67C43.7051 12.0967 43.7184 12.5567 43.7451 13.05C43.7718 13.5433 43.8118 14.01 43.8651 14.45C43.9184 14.89 43.9784 15.2567 44.0451 15.55H41.2251L40.8651 14.35C40.4918 14.87 40.0184 15.2433 39.4451 15.47C38.8851 15.6833 38.2518 15.79 37.5451 15.79ZM38.6651 13.71C39.2651 13.71 39.7651 13.55 40.1651 13.23C40.5651 12.91 40.7651 12.2967 40.7651 11.39V11.15C39.7118 11.2433 38.8651 11.39 38.2251 11.59C37.5851 11.7767 37.2651 12.13 37.2651 12.65C37.2651 12.97 37.3984 13.23 37.6651 13.43C37.9318 13.6167 38.2651 13.71 38.6651 13.71Z" fill="white"/>
<path d="M48.3598 3.99001C47.8665 3.99001 47.4398 3.81668 47.0798 3.47001C46.7331 3.11001 46.5598 2.68335 46.5598 2.19001C46.5598 1.68335 46.7331 1.25668 47.0798 0.910014C47.4398 0.563348 47.8665 0.390015 48.3598 0.390015C48.8665 0.390015 49.2931 0.563348 49.6398 0.910014C49.9865 1.25668 50.1598 1.68335 50.1598 2.19001C50.1598 2.68335 49.9865 3.11001 49.6398 3.47001C49.2931 3.81668 48.8665 3.99001 48.3598 3.99001ZM46.8198 15.55V7.95001H44.9398V5.63001H49.8798V15.55H46.8198Z" fill="white"/>
<path d="M62.9746 15.79C61.5213 15.79 60.2946 15.4967 59.2946 14.91C58.308 14.31 57.608 13.4767 57.1946 12.41L60.0746 11.37C60.2613 12.01 60.608 12.4833 61.1147 12.79C61.6347 13.0967 62.2613 13.25 62.9946 13.25C63.3813 13.25 63.7547 13.21 64.1147 13.13C64.4747 13.0367 64.7747 12.89 65.0147 12.69C65.2547 12.4767 65.3747 12.1967 65.3747 11.85C65.3747 11.3833 65.148 11.0233 64.6947 10.77C64.2413 10.5033 63.6547 10.3033 62.9347 10.17L61.3146 9.85001C60.5946 9.70335 59.9213 9.48335 59.2946 9.19001C58.6813 8.88335 58.188 8.48335 57.8146 7.99001C57.4413 7.48335 57.2547 6.85001 57.2547 6.09001C57.2547 5.37001 57.4213 4.75001 57.7547 4.23001C58.088 3.71001 58.528 3.28335 59.0746 2.95001C59.6346 2.61668 60.248 2.37001 60.9146 2.21001C61.5813 2.03668 62.248 1.95001 62.9146 1.95001C63.6346 1.95001 64.328 2.05001 64.9947 2.25001C65.6747 2.45001 66.2813 2.76335 66.8147 3.19001C67.348 3.60335 67.7547 4.15668 68.0347 4.85001L65.1747 5.89001C65.0013 5.43668 64.688 5.09001 64.2346 4.85001C63.7946 4.61001 63.2613 4.49001 62.6346 4.49001C62.0213 4.49001 61.508 4.60335 61.0947 4.83001C60.6947 5.04335 60.4946 5.35668 60.4946 5.77001C60.4946 6.10335 60.6346 6.39001 60.9146 6.63001C61.1946 6.87001 61.5613 7.03668 62.0146 7.13001L63.8146 7.49001C64.3613 7.59668 64.9147 7.73668 65.4747 7.91001C66.0347 8.07001 66.548 8.29001 67.0147 8.57001C67.4947 8.83668 67.8813 9.19668 68.1747 9.65001C68.468 10.1033 68.6147 10.6767 68.6147 11.37C68.6147 12.0767 68.448 12.71 68.1147 13.27C67.7947 13.8167 67.3613 14.2767 66.8147 14.65C66.2813 15.0233 65.6813 15.31 65.0147 15.51C64.348 15.6967 63.668 15.79 62.9746 15.79Z" fill="white"/>
<path d="M74.7575 15.79C73.6908 15.79 72.7441 15.5833 71.9175 15.17C71.1041 14.7433 70.4641 14.1367 69.9975 13.35C69.5441 12.5633 69.3175 11.6233 69.3175 10.53C69.3175 9.47668 69.5575 8.56335 70.0375 7.79001C70.5308 7.01668 71.1775 6.41668 71.9775 5.99001C72.7908 5.56335 73.6775 5.35001 74.6375 5.35001C75.7308 5.35001 76.6641 5.61001 77.4375 6.13001C78.2241 6.63668 78.8175 7.34335 79.2175 8.25001C79.6175 9.14335 79.7841 10.1767 79.7175 11.35H72.3775C72.4308 12.0433 72.6841 12.5633 73.1375 12.91C73.6041 13.2567 74.1175 13.43 74.6775 13.43C75.1441 13.43 75.5441 13.3633 75.8775 13.23C76.2241 13.0833 76.4908 12.9033 76.6775 12.69L79.0975 13.57C78.5775 14.33 77.9241 14.89 77.1375 15.25C76.3641 15.61 75.5708 15.79 74.7575 15.79ZM72.3775 9.55001H76.8975C76.8841 8.91001 76.6641 8.43001 76.2375 8.11001C75.8108 7.77668 75.3041 7.61001 74.7175 7.61001C74.1441 7.61001 73.6308 7.76335 73.1775 8.07001C72.7375 8.37668 72.4708 8.87001 72.3775 9.55001Z" fill="white"/>
<path d="M80.9256 15.55V2.19001H83.9656V9.39001L87.2856 5.63001H90.8856L87.0056 9.77002L91.1856 15.55H87.5856L85.0056 11.95L83.9656 13.05V15.55H80.9256Z" fill="white"/>
<path d="M94.9332 15.79C94.3066 15.79 93.7332 15.67 93.2132 15.43C92.6932 15.19 92.2799 14.8567 91.9732 14.43C91.6666 13.99 91.5132 13.47 91.5132 12.87C91.5132 12.0567 91.7932 11.41 92.3532 10.93C92.9266 10.45 93.7066 10.09 94.6932 9.85001C95.6799 9.61001 96.8132 9.44335 98.0932 9.35002C98.0932 8.64335 97.9799 8.14335 97.7532 7.85001C97.5266 7.55668 97.0866 7.41001 96.4332 7.41001C96.0199 7.41001 95.6532 7.51002 95.3332 7.71001C95.0266 7.89668 94.8199 8.19002 94.7132 8.59002L92.1532 7.67001C92.4866 7.00335 93.0399 6.45001 93.8132 6.01001C94.5999 5.57001 95.5599 5.35001 96.6932 5.35001C98.1066 5.35001 99.1932 5.66335 99.9532 6.29001C100.713 6.91668 101.093 7.98335 101.093 9.49002V11.67C101.093 12.0967 101.107 12.5567 101.133 13.05C101.16 13.5433 101.2 14.01 101.253 14.45C101.307 14.89 101.367 15.2567 101.433 15.55H98.6132L98.2532 14.35C97.8799 14.87 97.4066 15.2433 96.8332 15.47C96.2732 15.6833 95.6399 15.79 94.9332 15.79ZM96.0532 13.71C96.6532 13.71 97.1532 13.55 97.5532 13.23C97.9532 12.91 98.1532 12.2967 98.1532 11.39V11.15C97.0999 11.2433 96.2532 11.39 95.6132 11.59C94.9732 11.7767 94.6532 12.13 94.6532 12.65C94.6532 12.97 94.7866 13.23 95.0532 13.43C95.3199 13.6167 95.6532 13.71 96.0532 13.71Z" fill="white"/>
<path d="M102.848 15.55V5.63001H105.248L105.788 7.45001C106.095 6.65001 106.515 6.09001 107.048 5.77001C107.581 5.45001 108.228 5.31001 108.988 5.35001V8.39001C108.828 8.36335 108.688 8.35001 108.568 8.35001C108.448 8.33668 108.315 8.33001 108.168 8.33001C107.435 8.33001 106.868 8.50335 106.468 8.85002C106.081 9.19668 105.888 9.76335 105.888 10.55V15.55H102.848Z" fill="white"/>
<path d="M112.695 15.79C112.069 15.79 111.495 15.67 110.975 15.43C110.455 15.19 110.042 14.8567 109.735 14.43C109.429 13.99 109.275 13.47 109.275 12.87C109.275 12.0567 109.555 11.41 110.115 10.93C110.689 10.45 111.469 10.09 112.455 9.85001C113.442 9.61001 114.575 9.44335 115.855 9.35002C115.855 8.64335 115.742 8.14335 115.515 7.85001C115.289 7.55668 114.849 7.41001 114.195 7.41001C113.782 7.41001 113.415 7.51002 113.095 7.71001C112.789 7.89668 112.582 8.19002 112.475 8.59002L109.915 7.67001C110.249 7.00335 110.802 6.45001 111.575 6.01001C112.362 5.57001 113.322 5.35001 114.455 5.35001C115.869 5.35001 116.955 5.66335 117.715 6.29001C118.475 6.91668 118.855 7.98335 118.855 9.49002V11.67C118.855 12.0967 118.869 12.5567 118.895 13.05C118.922 13.5433 118.962 14.01 119.015 14.45C119.069 14.89 119.129 15.2567 119.195 15.55H116.375L116.015 14.35C115.642 14.87 115.169 15.2433 114.595 15.47C114.035 15.6833 113.402 15.79 112.695 15.79ZM113.815 13.71C114.415 13.71 114.915 13.55 115.315 13.23C115.715 12.91 115.915 12.2967 115.915 11.39V11.15C114.862 11.2433 114.015 11.39 113.375 11.59C112.735 11.7767 112.415 12.13 112.415 12.65C112.415 12.97 112.549 13.23 112.815 13.43C113.082 13.6167 113.415 13.71 113.815 13.71Z" fill="white"/>
<path d="M120.61 15.55V5.63001H123.27L123.65 6.95001C123.877 6.57668 124.25 6.21668 124.77 5.87001C125.303 5.52335 125.95 5.35001 126.71 5.35001C127.99 5.35001 128.863 5.71001 129.33 6.43001C129.81 7.13668 130.05 8.16335 130.05 9.51002V15.55H127.01V10.27C127.01 9.80335 126.983 9.37668 126.93 8.99002C126.877 8.60335 126.743 8.29668 126.53 8.07001C126.33 7.83001 125.983 7.71001 125.49 7.71001C124.85 7.71001 124.383 7.94335 124.09 8.41002C123.797 8.86335 123.65 9.54335 123.65 10.45V15.55H120.61Z" fill="white"/>
<path d="M136.675 19.61C136.129 19.61 135.575 19.5367 135.015 19.39C134.455 19.2567 133.935 19.0167 133.455 18.67C132.975 18.3233 132.582 17.85 132.275 17.25L134.755 16.35C134.942 16.71 135.209 16.9567 135.555 17.09C135.902 17.2233 136.249 17.29 136.595 17.29C137.235 17.29 137.749 17.1367 138.135 16.83C138.522 16.5367 138.715 16.0633 138.715 15.41V13.63C138.289 14.1633 137.795 14.5567 137.235 14.81C136.689 15.0633 136.135 15.19 135.575 15.19C134.855 15.19 134.169 14.9967 133.515 14.61C132.862 14.2233 132.329 13.67 131.915 12.95C131.502 12.23 131.295 11.37 131.295 10.37C131.295 9.21001 131.502 8.26335 131.915 7.53001C132.329 6.78335 132.855 6.23001 133.495 5.87001C134.135 5.51001 134.795 5.33001 135.475 5.33001C136.102 5.33001 136.702 5.47001 137.275 5.75001C137.862 6.03001 138.342 6.44335 138.715 6.99001L139.115 5.63001H141.735V14.81C141.735 16.4633 141.289 17.6767 140.395 18.45C139.502 19.2233 138.262 19.61 136.675 19.61ZM136.655 12.83C137.055 12.83 137.415 12.7567 137.735 12.61C138.069 12.45 138.335 12.1833 138.535 11.81C138.735 11.4367 138.835 10.93 138.835 10.29C138.835 9.31668 138.615 8.64335 138.175 8.27001C137.749 7.89668 137.242 7.71001 136.655 7.71001C136.055 7.71001 135.535 7.91001 135.095 8.31001C134.669 8.71001 134.455 9.34335 134.455 10.21C134.455 11.09 134.669 11.75 135.095 12.19C135.535 12.6167 136.055 12.83 136.655 12.83Z" fill="white"/>
</svg>
