<svg width="162" height="24" viewBox="0 0 162 24" fill="none" xmlns="http://www.w3.org/2000/svg">
<path d="M12 0L15.5267 7.1459L23.4127 8.2918L17.7063 13.8541L19.0534 21.7082L12 18L4.94658 21.7082L6.29366 13.8541L0.587322 8.2918L8.47329 7.1459L12 0Z" fill="black" fill-opacity="0.2"/>
<path d="M46.5 0L50.0267 7.1459L57.9127 8.2918L52.2063 13.8541L53.5534 21.7082L46.5 18L39.4466 21.7082L40.7937 13.8541L35.0873 8.2918L42.9733 7.1459L46.5 0Z" fill="black" fill-opacity="0.2"/>
<path d="M81 0L84.5267 7.1459L92.4127 8.2918L86.7063 13.8541L88.0534 21.7082L81 18L73.9466 21.7082L75.2937 13.8541L69.5873 8.2918L77.4733 7.1459L81 0Z" fill="black" fill-opacity="0.2"/>
<path d="M115.5 0L119.027 7.1459L126.913 8.2918L121.206 13.8541L122.553 21.7082L115.5 18L108.447 21.7082L109.794 13.8541L104.087 8.2918L111.973 7.1459L115.5 0Z" fill="black" fill-opacity="0.2"/>
<path d="M150 0L153.527 7.1459L161.413 8.2918L155.706 13.8541L157.053 21.7082L150 18L142.947 21.7082L144.294 13.8541L138.587 8.2918L146.473 7.1459L150 0Z" fill="black" fill-opacity="0.2"/>
</svg>
