<svg width="14" height="13" viewBox="0 0 14 13" fill="none" xmlns="http://www.w3.org/2000/svg">
<path d="M12.652 5.4937H3.3437L7.41037 1.42704C7.73537 1.10204 7.73537 0.568703 7.41037 0.243703C7.33328 0.16645 7.2417 0.105161 7.14089 0.0633426C7.04008 0.0215248 6.93201 0 6.82287 0C6.71373 0 6.60566 0.0215248 6.50485 0.0633426C6.40404 0.105161 6.31247 0.16645 6.23537 0.243703L0.743704 5.73537C0.666451 5.81246 0.605161 5.90404 0.563343 6.00485C0.521525 6.10566 0.5 6.21373 0.5 6.32287C0.5 6.43201 0.521525 6.54008 0.563343 6.64089C0.605161 6.7417 0.666451 6.83328 0.743704 6.91037L6.23537 12.402C6.31252 12.4792 6.40411 12.5404 6.50492 12.5821C6.60572 12.6239 6.71376 12.6454 6.82287 12.6454C6.93198 12.6454 7.04002 12.6239 7.14082 12.5821C7.24163 12.5404 7.33322 12.4792 7.41037 12.402C7.48752 12.3249 7.54872 12.2333 7.59048 12.1325C7.63223 12.0317 7.65372 11.9236 7.65372 11.8145C7.65372 11.7054 7.63223 11.5974 7.59048 11.4966C7.54872 11.3958 7.48752 11.3042 7.41037 11.227L3.3437 7.16037H12.652C13.1104 7.16037 13.4854 6.78537 13.4854 6.32704C13.4854 5.8687 13.1104 5.4937 12.652 5.4937Z" fill="#224877"/>
</svg>
