<svg width="7" height="12" viewBox="0 0 7 12" fill="none" xmlns="http://www.w3.org/2000/svg">
<path d="M0.310447 10.161L4.43527 5.9944L0.310447 1.82776C0.212023 1.72834 0.13395 1.61031 0.0806832 1.48041C0.0274167 1.35051 1.03707e-09 1.21128 0 1.07068C-1.03706e-09 0.930074 0.0274167 0.790848 0.0806832 0.660947C0.13395 0.531047 0.212023 0.413016 0.310447 0.313594C0.408871 0.214173 0.525717 0.135307 0.654314 0.0815007C0.782911 0.0276941 0.92074 -1.04758e-09 1.05993 0C1.19912 1.04758e-09 1.33695 0.0276941 1.46555 0.0815007C1.59415 0.135307 1.71099 0.214173 1.80942 0.313594L6.68904 5.24269C7.10365 5.6615 7.10365 6.33804 6.68904 6.75686L1.80942 11.686C1.71107 11.7855 1.59424 11.8645 1.46564 11.9184C1.33703 11.9723 1.19916 12 1.05993 12C0.9207 12 0.782834 11.9723 0.654228 11.9184C0.525621 11.8645 0.408798 11.7855 0.310447 11.686C-0.0935306 11.2671 -0.104162 10.5799 0.310447 10.161Z" fill="white"/>
</svg>
