<svg width="7" height="12" viewBox="0 0 7 12" fill="none" xmlns="http://www.w3.org/2000/svg">
<path d="M0.310447 10.051L4.43527 5.95877L0.310447 1.86653C0.212023 1.76889 0.13395 1.65296 0.0806832 1.52538C0.0274167 1.3978 1.03707e-09 1.26106 0 1.12297C-1.03706e-09 0.984877 0.0274167 0.848137 0.0806832 0.720556C0.13395 0.592975 0.212023 0.477052 0.310447 0.379406C0.408871 0.281759 0.525717 0.204302 0.654314 0.151456C0.782911 0.0986107 0.92074 0.0714111 1.05993 0.0714111C1.19912 0.0714111 1.33695 0.0986107 1.46555 0.151456C1.59415 0.204302 1.71099 0.281759 1.80942 0.379406L6.68904 5.22048C7.10365 5.63181 7.10365 6.29628 6.68904 6.70761L1.80942 11.5487C1.71107 11.6465 1.59424 11.724 1.46564 11.777C1.33703 11.8299 1.19916 11.8571 1.05993 11.8571C0.9207 11.8571 0.782834 11.8299 0.654228 11.777C0.525621 11.724 0.408798 11.6465 0.310447 11.5487C-0.0935306 11.1374 -0.104162 10.4623 0.310447 10.051Z" fill="white"/>
</svg>
