<svg width="12" height="14" viewBox="0 0 12 14" fill="none" xmlns="http://www.w3.org/2000/svg">
<path d="M6.10721 7C6.51235 7 6.85929 6.8628 7.14804 6.5884C7.43679 6.314 7.58092 5.98453 7.58043 5.6C7.58043 5.215 7.43605 4.8853 7.1473 4.6109C6.85855 4.3365 6.51186 4.19953 6.10721 4.2C5.70208 4.2 5.35514 4.3372 5.06639 4.6116C4.77764 4.886 4.63351 5.21547 4.634 5.6C4.634 5.985 4.77837 6.3147 5.06712 6.5891C5.35587 6.8635 5.70257 7.00047 6.10721 7ZM6.10721 14C4.13065 12.4017 2.65449 10.9172 1.67873 9.5466C0.702972 8.176 0.214847 6.90713 0.214355 5.74C0.214355 3.99 0.806833 2.59583 1.99179 1.5575C3.17674 0.519167 4.54855 0 6.10721 0C7.66636 0 9.03842 0.519167 10.2234 1.5575C11.4083 2.59583 12.0006 3.99 12.0001 5.74C12.0001 6.90667 11.5119 8.17553 10.5357 9.5466C9.55944 10.9177 8.08328 12.4021 6.10721 14Z" fill="#224877"/>
</svg>
