<svg width="11" height="18" viewBox="0 0 11 18" fill="none" xmlns="http://www.w3.org/2000/svg">
<path d="M0.919846 16.7866C0.639948 16.5071 0.5 16.1513 0.5 15.7193C0.5 15.2873 0.639948 14.9316 0.919846 14.6521L6.87403 8.70587L0.919846 2.75968C0.639948 2.48016 0.5 2.12441 0.5 1.69242C0.5 1.26043 0.639948 0.904675 0.919846 0.625153C1.19974 0.345632 1.55598 0.205872 1.98855 0.205872C2.42111 0.205872 2.77735 0.345632 3.05725 0.625153L10.0801 7.63861C10.2328 7.79107 10.3412 7.95624 10.4053 8.13412C10.4694 8.312 10.501 8.50258 10.5 8.70587C10.5 8.90916 10.4679 9.09974 10.4038 9.27762C10.3397 9.4555 10.2318 9.62067 10.0801 9.77313L3.05725 16.7866C2.77735 17.0661 2.42111 17.2059 1.98855 17.2059C1.55598 17.2059 1.19974 17.0661 0.919846 16.7866Z" fill="#224877"/>
</svg>
