<svg width="7" height="11" viewBox="0 0 7 11" fill="none" xmlns="http://www.w3.org/2000/svg">
<path d="M0.275 10.68C0.0916663 10.504 0 10.28 0 10.008C0 9.73599 0.0916663 9.51199 0.275 9.33599L4.175 5.59199L0.275 1.84799C0.0916663 1.67199 0 1.44799 0 1.17599C0 0.90399 0.0916663 0.67999 0.275 0.50399C0.458333 0.32799 0.691666 0.23999 0.974999 0.23999C1.25833 0.23999 1.49167 0.32799 1.675 0.50399L6.275 4.91999C6.375 5.01599 6.446 5.11999 6.488 5.23199C6.53 5.34399 6.55067 5.46399 6.55 5.59199C6.55 5.71999 6.529 5.83999 6.487 5.95199C6.445 6.06399 6.37433 6.16799 6.275 6.26399L1.675 10.68C1.49167 10.856 1.25833 10.944 0.974999 10.944C0.691666 10.944 0.458333 10.856 0.275 10.68Z" fill="white"/>
</svg>
