<svg width="8" height="4" viewBox="0 0 8 4" fill="none" xmlns="http://www.w3.org/2000/svg">
<path d="M3.86211 3.99999C3.77487 3.99999 3.69025 3.98472 3.60824 3.95419C3.52623 3.92365 3.45819 3.88294 3.4041 3.83205L0.394289 1.0229C0.274333 0.910939 0.214355 0.768446 0.214355 0.595418C0.214355 0.42239 0.274333 0.279897 0.394289 0.167938C0.514245 0.0559793 0.666917 0 0.852304 0C1.03769 0 1.19036 0.0559793 1.31032 0.167938L3.86211 2.54961L6.4139 0.167938C6.53386 0.0559793 6.68653 0 6.87192 0C7.05731 0 7.20998 0.0559793 7.32993 0.167938C7.44989 0.279897 7.50987 0.42239 7.50987 0.595418C7.50987 0.768446 7.44989 0.910939 7.32993 1.0229L4.32012 3.83205C4.25469 3.89312 4.18381 3.93648 4.10748 3.96213C4.03114 3.98778 3.94935 4.0004 3.86211 3.99999Z" fill="#224877"/>
</svg>
