<svg width="8" height="13" viewBox="0 0 8 13" fill="none" xmlns="http://www.w3.org/2000/svg">
<path d="M0.810447 10.4438L4.93527 6.35159L0.810447 2.25936C0.712023 2.16171 0.63395 2.04579 0.580683 1.91821C0.527417 1.79062 0.5 1.65388 0.5 1.51579C0.5 1.3777 0.527417 1.24096 0.580683 1.11338C0.63395 0.985797 0.712023 0.869874 0.810447 0.772228C0.908871 0.674582 1.02572 0.597124 1.15431 0.544279C1.28291 0.491433 1.42074 0.464233 1.55993 0.464233C1.69912 0.464233 1.83695 0.491433 1.96555 0.544279C2.09415 0.597124 2.21099 0.674582 2.30942 0.772228L7.18904 5.6133C7.60365 6.02464 7.60365 6.6891 7.18904 7.10043L2.30942 11.9415C2.21107 12.0393 2.09424 12.1169 1.96564 12.1698C1.83703 12.2227 1.69916 12.2499 1.55993 12.2499C1.4207 12.2499 1.28283 12.2227 1.15423 12.1698C1.02562 12.1169 0.908798 12.0393 0.810447 11.9415C0.406469 11.5302 0.395838 10.8552 0.810447 10.4438Z" fill="white"/>
</svg>
