<svg width="8" height="14" viewBox="0 0 8 14" fill="none" xmlns="http://www.w3.org/2000/svg">
<path d="M0.277136 13.7233C0.0923786 13.5389 0 13.3205 0 13.0681C0 12.8158 0.0923786 12.5977 0.277136 12.4137L5.69052 7.00922L0.25866 1.5863C0.08622 1.41414 0 1.19895 0 0.940711C0 0.682477 0.0923786 0.461133 0.277136 0.27668C0.461893 0.0922266 0.680646 0 0.933394 0C1.18614 0 1.40465 0.0922266 1.58891 0.27668L7.79676 6.49275C7.87066 6.56653 7.92313 6.64646 7.95417 6.73254C7.98521 6.81862 8.00048 6.91085 7.99999 7.00922C7.99999 7.1076 7.98447 7.19982 7.95343 7.2859C7.92239 7.37198 7.87017 7.45191 7.79676 7.52569L1.57044 13.7418C1.398 13.9139 1.1854 14 0.932654 14C0.679906 14 0.4614 13.9078 0.277136 13.7233Z" fill="#224877"/>
</svg>
