<svg width="12" height="7" viewBox="0 0 12 7" fill="none" xmlns="http://www.w3.org/2000/svg">
<path d="M5.575 6.37766C5.44167 6.37766 5.31233 6.35372 5.187 6.30585C5.06167 6.25798 4.95767 6.19415 4.875 6.11436L0.275 1.71011C0.0916663 1.53458 0 1.31117 0 1.03989C0 0.768618 0.0916663 0.545214 0.275 0.369682C0.458333 0.19415 0.691667 0.106384 0.975 0.106384C1.25833 0.106384 1.49167 0.19415 1.675 0.369682L5.575 4.10372L9.475 0.369682C9.65833 0.19415 9.89167 0.106384 10.175 0.106384C10.4583 0.106384 10.6917 0.19415 10.875 0.369682C11.0583 0.545214 11.15 0.768618 11.15 1.03989C11.15 1.31117 11.0583 1.53458 10.875 1.71011L6.275 6.11436C6.175 6.21011 6.06667 6.27809 5.95 6.3183C5.83333 6.35851 5.70833 6.3783 5.575 6.37766Z" fill="#949090"/>
</svg>
