<svg width="8" height="12" viewBox="0 0 8 12" fill="none" xmlns="http://www.w3.org/2000/svg">
<path d="M0.775 10.8859C0.591666 10.7099 0.5 10.4859 0.5 10.2139C0.5 9.94186 0.591666 9.71786 0.775 9.54186L4.675 5.79786L0.775 2.05386C0.591666 1.87786 0.5 1.65386 0.5 1.38186C0.5 1.10986 0.591666 0.885861 0.775 0.709861C0.958333 0.533861 1.19167 0.445862 1.475 0.445862C1.75833 0.445862 1.99167 0.533861 2.175 0.709861L6.775 5.12586C6.875 5.22186 6.946 5.32586 6.988 5.43786C7.03 5.54986 7.05067 5.66986 7.05 5.79786C7.05 5.92586 7.029 6.04586 6.987 6.15786C6.945 6.26986 6.87433 6.37386 6.775 6.46986L2.175 10.8859C1.99167 11.0619 1.75833 11.1499 1.475 11.1499C1.19167 11.1499 0.958333 11.0619 0.775 10.8859Z" fill="white"/>
</svg>
