<svg width="11" height="14" viewBox="0 0 11 14" fill="none" xmlns="http://www.w3.org/2000/svg">
<path d="M1.32402 11.9456L6.77752 7.39869L1.32402 2.85176C1.19389 2.74326 1.09067 2.61446 1.02025 2.4727C0.949822 2.33095 0.913574 2.17901 0.913574 2.02558C0.913574 1.87214 0.949822 1.72021 1.02025 1.57845C1.09067 1.43669 1.19389 1.30789 1.32402 1.19939C1.45415 1.0909 1.60863 1.00483 1.77865 0.946117C1.94867 0.887399 2.1309 0.857178 2.31493 0.857178C2.49895 0.857178 2.68118 0.887399 2.8512 0.946117C3.02122 1.00483 3.1757 1.0909 3.30583 1.19939L9.75726 6.57837C10.3054 7.0354 10.3054 7.77369 9.75726 8.23073L3.30583 13.6097C3.1758 13.7183 3.02135 13.8045 2.85131 13.8633C2.68128 13.9221 2.49901 13.9524 2.31493 13.9524C2.13085 13.9524 1.94857 13.9221 1.77854 13.8633C1.60851 13.8045 1.45405 13.7183 1.32402 13.6097C0.789916 13.1527 0.775861 12.4027 1.32402 11.9456Z" fill="#1DA4D7"/>
</svg>
