<svg width="18" height="18" viewBox="0 0 18 18" fill="none" xmlns="http://www.w3.org/2000/svg">
<path d="M1.73864 17.7183L7.46591 11.9829C7.97727 12.3926 8.56534 12.7169 9.23011 12.9559C9.89489 13.1949 10.6023 13.3144 11.3523 13.3144C13.2102 13.3144 14.7825 12.6698 16.0691 11.3807C17.3557 10.0916 17.9993 8.5171 18 6.65718C18 4.79659 17.3564 3.22208 16.0691 1.93366C14.7818 0.645235 13.2095 0.000682788 11.3523 0C9.49432 0 7.92205 0.644552 6.63545 1.93366C5.34886 3.22276 4.70523 4.79727 4.70455 6.65718C4.70455 7.40825 4.82386 8.11664 5.0625 8.78236C5.30114 9.44808 5.625 10.037 6.03409 10.5491L0.28125 16.3101C0.0937496 16.4979 -8.66976e-09 16.7283 -8.66976e-09 17.0014C-8.66976e-09 17.2745 0.102274 17.5135 0.306819 17.7183C0.494319 17.9061 0.732955 18 1.02273 18C1.3125 18 1.55114 17.9061 1.73864 17.7183ZM11.3523 11.266C10.0739 11.266 8.98705 10.8178 8.09182 9.92125C7.19659 9.02475 6.74932 7.93673 6.75 6.65718C6.75 5.37696 7.19761 4.28859 8.09284 3.39209C8.98807 2.49559 10.0745 2.04768 11.3523 2.04836C12.6307 2.04836 13.7175 2.49661 14.6127 3.39312C15.508 4.28962 15.9552 5.37764 15.9545 6.65718C15.9545 7.93741 15.5069 9.02578 14.6117 9.92228C13.7165 10.8188 12.63 11.2667 11.3523 11.266Z" fill="#224877"/>
</svg>
